<svg width="53" height="53" viewBox="0 0 53 53" fill="none" xmlns="http://www.w3.org/2000/svg">
<path d="M0 0H0.15C0.319296 0.0937357 1.0868 0.29445 1.30355 0.356279L3.60481 1.01541L13.1823 3.75896L52.8 15.1083V52.8H0V0Z" fill="#333333"/>
<path d="M18.2982 19.3979C23.6677 18.8506 24.8866 26.3951 22.3029 29.774C21.5047 30.8179 20.542 31.3015 19.2664 31.4766C16.0158 31.7207 14.2581 29.4004 13.9441 26.3727C13.6277 23.322 14.796 19.7456 18.2982 19.3979Z" fill="white"/>
<path d="M18.6572 21.5893C20.3661 21.4788 20.9561 23.3029 21.0273 24.6907C21.1135 26.3731 21.0356 29.1118 18.834 29.2761C18.3581 29.3088 17.8871 29.1624 17.5137 28.8654C16.8292 28.31 16.551 27.2394 16.4734 26.395C16.3555 25.1102 16.4034 23.3017 17.2418 22.2677C17.6173 21.8046 18.0886 21.6434 18.6572 21.5893Z" fill="#333333"/>
<path d="M7.6708 19.3974C8.14879 19.3574 8.62979 19.3722 9.10442 19.4414C11.2802 19.7593 12.9946 21.3824 12.6203 23.6815C12.2532 25.9362 9.68419 27.8172 7.96061 29.0931C9.546 29.0668 11.1731 29.1261 12.7569 29.0846C12.7269 29.6974 12.7348 30.6776 12.7551 31.2915C12.0166 31.2577 11.115 31.2814 10.3687 31.2814L5.99494 31.2817C5.30414 31.2783 4.6133 31.2801 3.92252 31.2874C3.9295 30.6431 3.92007 29.9803 3.91878 29.3342C4.79679 28.6886 5.66773 28.0333 6.5315 27.3686C7.202 26.8496 7.94689 26.2623 8.56098 25.6849C9.26011 25.0085 10.1019 24.2214 10.134 23.1791C10.1609 22.0785 9.13177 21.5697 8.16781 21.5881C6.9061 21.6121 5.96455 22.0685 5.08383 22.944C4.60046 22.4019 4.13511 21.8308 3.64844 21.2931C4.71782 20.0914 6.09544 19.5409 7.6708 19.3974Z" fill="white"/>
<path d="M28.4251 19.3981C31.0323 19.1226 33.8342 20.7311 33.3802 23.6649C33.0299 25.9293 30.4597 27.8123 28.7177 29.0952C30.2808 29.0478 31.9411 29.1313 33.5169 29.0864C33.5125 29.8222 33.512 30.5578 33.5151 31.2936C32.7112 31.266 31.8385 31.282 31.031 31.282L26.6959 31.2822L24.6796 31.283C24.686 30.7393 24.7111 29.8612 24.6711 29.337C25.1384 29.0308 25.8709 28.4489 26.3363 28.1003C27.3203 27.363 28.397 26.53 29.2991 25.708C30.0098 25.0285 30.8544 24.2432 30.8908 23.1917C30.9284 22.1057 29.9598 21.5864 28.9961 21.5888C27.7102 21.5921 26.7413 22.0567 25.8281 22.9501C25.7274 22.7956 25.456 22.4973 25.3277 22.3482C25.0227 21.9905 24.7143 21.6358 24.4023 21.2842C25.5731 20.0931 26.7547 19.5458 28.4251 19.3981Z" fill="white"/>
<path d="M38.5579 19.3981C41.1651 19.1226 43.967 20.7311 43.513 23.6649C43.1627 25.9293 40.5925 27.8123 38.8505 29.0952C40.4136 29.0478 42.0739 29.1313 43.6497 29.0864C43.6453 29.8222 43.6448 30.5578 43.6479 31.2936C42.844 31.266 41.9713 31.282 41.1639 31.282L36.8287 31.2822L34.8124 31.283C34.8189 30.7393 34.8439 29.8612 34.804 29.337C35.2712 29.0308 36.0037 28.4489 36.4691 28.1003C37.4532 27.363 38.5298 26.53 39.4319 25.708C40.1427 25.0285 40.9872 24.2432 41.0236 23.1917C41.0612 22.1057 40.0926 21.5864 39.1289 21.5888C37.843 21.5921 36.8741 22.0567 35.9609 22.9501C35.8602 22.7956 35.5888 22.4973 35.4605 22.3482C35.1556 21.9905 34.8471 21.6358 34.5352 21.2842C35.706 20.0931 36.8875 19.5458 38.5579 19.3981Z" fill="white"/>
<path d="M3.90722 4.88927C4.51968 4.88577 5.13217 4.88672 5.7446 4.89214C5.74922 5.50091 5.74548 6.10971 5.73336 6.71835C6.18435 6.81207 6.99551 7.07529 7.46364 7.20941L10.962 8.2115L10.9597 12.7116L8.3352 12.7122C8.34023 11.872 8.31829 10.9343 8.34892 10.1067L6.52521 10.1068L6.52541 12.7116L3.90039 12.7125L3.90722 4.88927Z" fill="#FEFEFE"/>
<path d="M3.91797 42.6952L5.23601 42.6924C5.58565 42.6921 5.90052 42.697 6.25011 42.7228C8.49677 42.8894 9.33685 45.6023 7.84046 47.1807C7.00478 47.9079 6.34001 47.9154 5.28804 47.9134L3.92039 47.9144C3.94816 46.2092 3.92196 44.4045 3.91797 42.6952Z" fill="white"/>
<path d="M4.83448 43.4903C5.56014 43.4875 6.5043 43.3877 7.07296 43.9111C7.85821 44.634 7.82 45.8506 7.1387 46.6225C6.44405 47.2286 5.72914 47.1059 4.83737 47.1036C4.8136 45.9254 4.82806 44.6721 4.83448 43.4903Z" fill="#333333"/>
<path d="M3.92188 34.8638C4.69954 34.904 6.5816 34.7349 7.21151 35.0172C7.54061 35.1647 7.78414 35.4217 7.90157 35.7641C8.02153 36.1137 7.9949 36.4671 7.83189 36.7971C7.67428 37.116 7.43045 37.2743 7.10436 37.3852C7.94117 37.6701 8.21432 38.3801 7.98789 39.1963C7.60671 40.2379 6.49884 40.0938 5.60975 40.0912L3.92267 40.0891L3.92188 34.8638Z" fill="white"/>
<path d="M4.83298 37.8293C5.44384 37.8259 6.95545 37.6166 7.11075 38.3738C7.17036 38.6644 7.11238 38.8683 6.921 39.09C6.66561 39.2877 6.41896 39.2779 6.11101 39.2798C5.68662 39.2823 5.26201 39.2805 4.83762 39.2798C4.82947 38.7964 4.82793 38.3127 4.83298 37.8293Z" fill="#333333"/>
<path d="M4.83134 35.6792C5.43107 35.6836 6.86958 35.4508 7.01919 36.1923C7.07215 36.4547 7.00494 36.6581 6.82913 36.8541C6.47941 37.1289 5.33253 37.0364 4.83769 37.0317C4.83055 36.5811 4.82843 36.1301 4.83134 35.6792Z" fill="#333333"/>
<path d="M20.0662 44.0445C20.649 44.0125 21.0014 44.2404 21.3756 44.6485L21.3559 44.1417L22.1961 44.136C22.1719 44.4588 22.1825 44.8739 22.1825 45.2049L22.1855 46.9358C22.1897 48.105 22.2518 49.1432 20.7551 49.4044C19.9145 49.5511 19.349 49.3863 18.6605 48.8993L18.9637 48.4322L19.0122 48.3303C19.0249 48.3224 19.0376 48.3144 19.0503 48.3064C19.122 48.359 19.3416 48.5361 19.4003 48.5766C19.5583 48.6859 19.8696 48.7418 20.0543 48.7581C20.4111 48.7898 20.787 48.7413 21.0671 48.5021C21.4264 48.195 21.3525 47.7392 21.3724 47.3058C20.3109 48.5013 18.6177 47.8369 18.4996 46.2949C18.4131 45.1654 18.8136 44.1631 20.0662 44.0445Z" fill="white"/>
<path d="M20.3072 44.7656H20.3307C20.7923 44.7692 21.0322 44.9028 21.346 45.2225C21.3825 45.4955 21.3685 46.4164 21.354 46.71C21.091 47.0305 20.8165 47.1434 20.4227 47.1971C19.1421 47.1347 18.958 45.3924 19.9713 44.8497C20.056 44.8043 20.2075 44.7816 20.3072 44.7656Z" fill="#333333"/>
<path d="M35.2766 36.2404C36.3602 36.0875 37.3621 36.8429 37.5132 37.9267C37.664 39.0106 36.9068 40.0111 35.8227 40.1601C34.7414 40.3086 33.7439 39.5538 33.5934 38.4728C33.4428 37.3918 34.1959 36.393 35.2766 36.2404Z" fill="white"/>
<path d="M35.3638 36.9528C36.9679 36.8379 37.0494 39.1675 35.7214 39.4449C34.1841 39.5627 34.0147 37.2911 35.3638 36.9528Z" fill="#333333"/>
<path d="M21.6643 36.2403C22.7425 36.0884 23.7407 36.8363 23.8979 37.914C24.0551 38.9914 23.3123 39.9933 22.2357 40.1559C21.1512 40.3199 20.1403 39.5704 19.9819 38.4853C19.8236 37.3999 20.5782 36.3929 21.6643 36.2403Z" fill="white"/>
<path d="M21.7513 36.9529C23.3517 36.8379 23.4401 39.1644 22.1087 39.4449C20.5755 39.5709 20.397 37.288 21.7513 36.9529Z" fill="#333333"/>
<path d="M28.4883 34.8665C28.7964 34.8711 29.1047 34.8698 29.4128 34.8618C29.3764 35.4917 29.3958 36.3713 29.4035 37.0138C30.2865 37.0058 31.2257 36.9944 32.1075 37.0107C32.1129 36.2955 32.1131 35.5801 32.1085 34.8649C32.4032 34.8768 32.7324 34.8675 33.0284 34.8628C33.0245 35.3432 33.0678 39.9946 32.9956 40.0908L32.1044 40.0905C32.1242 39.3462 32.1116 38.5612 32.1152 37.812C31.2515 37.7841 30.2736 37.8045 29.3994 37.8032C29.4035 38.5666 29.403 39.3297 29.3976 40.0931C29.1001 40.0869 28.7881 40.0905 28.4893 40.0897L28.4883 34.8665Z" fill="white"/>
<path d="M10.1502 36.2307C11.6036 36.0881 12.2342 37.1477 12.2386 38.4638L9.29647 38.4664C9.60407 39.5835 10.5482 39.7715 11.449 39.2184L11.6038 39.0921C11.7286 39.2909 11.8535 39.4649 11.9898 39.6549C11.1597 40.2358 10.1358 40.4224 9.24901 39.823C8.3413 39.2094 8.2346 37.7992 8.86162 36.9541C9.18216 36.5222 9.62454 36.3088 10.1502 36.2307Z" fill="white"/>
<path d="M10.1763 36.8988C10.9651 36.8529 11.2827 37.1337 11.4622 37.8777L10.5661 37.8824L9.30664 37.8765C9.4133 37.3263 9.63574 37.0489 10.1763 36.8988Z" fill="#333333"/>
<path d="M10.8167 44.0439L10.8415 44.0431C11.8462 44.0199 12.5263 44.6325 12.7176 45.6122C12.7633 45.8457 12.7646 46.0541 12.7693 46.2918C11.8705 46.2662 10.7251 46.2735 9.82628 46.2956C10.1329 47.4769 11.1583 47.5674 12.0574 46.9819L12.1052 46.9407C12.1942 46.9675 12.4332 47.3679 12.5004 47.4707C12.1486 47.7592 11.7202 47.9389 11.2677 47.9874C8.43886 48.3037 8.18094 44.2586 10.8167 44.0439Z" fill="white"/>
<path d="M10.8057 44.7134C11.54 44.6809 11.8271 45.0534 11.9789 45.7088L11.0236 45.7096L9.81836 45.7049C9.94077 45.13 10.2021 44.7889 10.8057 44.7134Z" fill="#333333"/>
<path d="M25.1066 44.0442C25.6319 43.9937 26.1955 44.2316 26.3257 44.7849C26.4288 45.2232 26.3902 45.736 26.3884 46.1884L26.394 47.9197C26.1236 47.9158 25.8439 47.9078 25.5744 47.9168C25.5658 47.3597 25.6586 45.4318 25.4617 45.0618C25.3892 44.9254 25.2636 44.8401 25.1167 44.7999C24.7607 44.7024 24.4167 44.8197 24.1134 45.0022C23.9848 45.1056 23.9516 45.1373 23.8405 45.2595C23.7988 46.0126 23.8363 47.1405 23.8322 47.9212C23.5831 47.9078 23.2787 47.9135 23.0254 47.9117L23.0234 44.1393L23.8491 44.137C23.8345 44.2793 23.8345 44.4892 23.8306 44.6367C24.2554 44.2579 24.5399 44.095 25.1066 44.0442Z" fill="white"/>
<path d="M40.6033 36.3071C40.8854 36.3146 41.1439 36.3099 41.4252 36.3032C41.403 36.6701 41.4167 37.1672 41.4159 37.5438L41.4144 40.0907L40.6061 40.0874C40.6051 39.9031 40.6092 39.7633 40.6221 39.5795C40.2774 39.9216 39.8502 40.1575 39.3568 40.1805C38.8651 40.2104 38.2474 40.0137 38.1242 39.4751C38.0229 39.0327 38.053 38.5109 38.053 38.0545L38.0543 36.3079C38.3294 36.3141 38.6045 36.3128 38.8796 36.3043C38.8672 36.9777 38.8819 37.6511 38.8731 38.3291C38.8651 38.9306 38.8597 39.4594 39.6381 39.455C40.0516 39.4527 40.3329 39.2485 40.6061 38.961L40.6033 36.3071Z" fill="white"/>
<path d="M13.9662 36.2317C14.6097 36.1397 15.1822 36.3606 15.684 36.7466L15.326 37.3318C14.9396 36.9131 14.0726 36.662 13.6133 37.0897C13.5645 37.1351 13.4553 37.2648 13.4799 37.3259C13.6712 37.7415 14.4296 37.7863 14.8864 37.9315C15.7267 38.1988 16.1095 38.9514 15.5312 39.7029C15.2601 40.0554 14.7601 40.151 14.3039 40.1796C13.6537 40.1861 13.0815 40.0404 12.6016 39.5892C12.727 39.3946 12.8532 39.2079 12.9553 38.9999C13.4243 39.377 14.3922 39.8411 14.9083 39.2845C15.4827 38.665 13.9436 38.5193 13.6265 38.3907C13.4421 38.3159 13.2461 38.2664 13.0881 38.1287C12.5538 37.7513 12.6307 36.9405 13.109 36.5548C13.3616 36.3514 13.6509 36.2694 13.9662 36.2317Z" fill="white"/>
<path d="M14.6491 44.0446C15.2497 44.0098 15.7545 44.2011 16.2118 44.579C16.0893 44.7605 15.9695 44.9585 15.8525 45.1449C15.4831 44.7574 14.6155 44.4828 14.1587 44.8884C14.063 44.9735 14.0025 45.0328 13.9948 45.1648C14.1751 45.6701 15.4429 45.529 16.0263 46.0937C16.2135 46.2723 16.3201 46.5193 16.3218 46.7782C16.3371 47.7617 15.4053 48.0066 14.6158 48.0033C14.012 47.9558 13.587 47.8169 13.123 47.4284C13.2311 47.2353 13.3787 47.013 13.495 46.816C13.8536 47.1649 14.4095 47.3773 14.9098 47.3587C15.0439 47.3538 15.3651 47.2314 15.4362 47.1174C15.8595 46.4695 14.6775 46.3566 14.2433 46.2396C13.3664 46.0032 12.9128 45.3705 13.484 44.5228C13.7079 44.1902 14.2396 44.0752 14.6491 44.0446Z" fill="white"/>
<path d="M45.916 36.3093C46.7866 36.3405 48.0058 36.3247 48.8855 36.3057C48.8873 36.497 48.9131 36.7293 48.845 36.9092C48.7316 37.209 47.2997 38.9823 46.9986 39.3912C47.525 39.346 48.3567 39.3883 48.9317 39.3705C48.9208 39.5938 48.9141 39.8171 48.9121 40.0406L48.8834 40.0878C47.9306 40.1125 46.8774 40.0896 45.9168 40.0891C45.9155 39.8849 45.916 39.6809 45.9178 39.4768C46.5263 38.6747 47.1674 37.8128 47.7952 37.0311C47.169 37.0368 46.5425 37.036 45.916 37.0291V36.3093Z" fill="white"/>
<path d="M42.2031 36.3101C42.3457 36.3152 42.4986 36.3134 42.6417 36.3119C43.4834 36.3029 44.3321 36.3279 45.1734 36.3052C45.1742 36.4521 45.1876 36.8061 45.129 36.9146C44.9635 37.2217 44.6624 37.5728 44.4458 37.8541C44.0534 38.3625 43.6636 38.8732 43.2772 39.3863C43.8964 39.3646 44.5714 39.3811 45.1984 39.3742L45.1935 40.0832C45.088 40.1015 44.4381 40.0924 44.2883 40.0924L42.2042 40.0893C42.2026 39.8828 42.2034 39.6761 42.2065 39.4693C42.2879 39.3512 42.3839 39.2288 42.4731 39.1153C43.0139 38.428 43.5262 37.7103 44.0756 37.0304C43.4517 37.0371 42.8275 37.0369 42.2036 37.0296L42.2031 36.3101Z" fill="white"/>
<path d="M25.9256 34.7883C26.3056 34.7728 26.5627 34.9082 26.869 35.1003C26.7568 35.273 26.6581 35.4434 26.5544 35.6216C26.3165 35.4816 25.978 35.3568 25.7495 35.5973C25.5573 35.7997 25.569 36.0498 25.5701 36.3099C25.8333 36.3159 26.0793 36.3112 26.3417 36.305C26.3373 36.5492 26.3301 36.7938 26.3384 37.038C26.0989 37.0274 25.816 37.0297 25.5754 37.0272C25.5615 37.9009 25.5744 38.8074 25.5749 39.6837L25.5745 40.0931L24.7531 40.0889L24.7504 37.0295L24.1351 37.0388L24.1328 36.3063C24.3324 36.3153 24.5419 36.3122 24.7474 36.3208C24.7484 35.4615 24.9694 34.8804 25.9256 34.7883Z" fill="white"/>
<path d="M16.7107 35.2773C16.9859 35.283 17.2611 35.2817 17.5363 35.2734C17.5323 35.6205 17.5314 35.9677 17.5334 36.3147C17.7888 36.314 18.0442 36.3106 18.2995 36.3047C18.2954 36.5499 18.2896 36.793 18.2966 37.0382C18.0573 37.0276 17.7745 37.0302 17.5339 37.0273C17.5309 37.4674 17.4614 38.9707 17.6007 39.2734C17.6378 39.3541 17.7019 39.4147 17.7868 39.4425C17.9576 39.4987 18.1267 39.4064 18.2718 39.3257C18.3152 39.4995 18.3819 39.6965 18.4362 39.8697C18.4119 40.1337 17.9346 40.1708 17.7184 40.1778C16.5846 40.2139 16.7066 39.2458 16.7087 38.451L16.7087 37.0289C16.5158 37.0376 16.2806 37.0315 16.0845 37.0312L16.082 36.306C16.2851 36.3181 16.5059 36.314 16.7108 36.314L16.7107 35.2773Z" fill="white"/>
<path d="M16.9919 44.1396L17.8135 44.1353C17.792 44.5684 17.8027 45.0794 17.8026 45.5166L17.8057 47.9168C17.5356 47.9119 17.2653 47.9125 16.9952 47.9179C16.9814 46.6662 16.9927 45.3929 16.9919 44.1396Z" fill="white"/>
<path d="M17.3271 42.656C17.5992 42.6192 17.8513 42.8053 17.8965 43.076C17.9417 43.347 17.7636 43.6048 17.4943 43.6584C17.3125 43.6945 17.1254 43.629 17.0061 43.4869C16.8867 43.3452 16.8541 43.1495 16.9209 42.9767C16.9877 42.8037 17.1433 42.6808 17.3271 42.656Z" fill="white"/>
</svg>
