<svg width="74" height="20" viewBox="0 0 74 20" fill="none" xmlns="http://www.w3.org/2000/svg">
<g clip-path="url(#clip0_4047_14618)">
<path d="M41.9201 6.74072C41.9201 4.59257 41.9571 2.59257 42.0681 0.740723L36.4071 1.8148V2.33332L36.9621 2.40739C37.3691 2.44443 37.6281 2.59257 37.7761 2.8148C37.9241 3.07406 38.0351 3.44443 38.1091 3.99998C38.1831 5.07406 38.2571 7.5185 38.2201 11.3704C38.2201 15.1852 38.1831 17.5926 38.1091 18.5185C40.1441 18.9629 41.7351 19.1481 42.9191 19.1481C45.1391 19.1481 46.8781 18.5185 48.1361 17.2222C49.3941 15.9629 50.0601 14.1852 50.0601 12C50.0601 10.2592 49.5791 8.8148 48.6171 7.66665C47.6551 6.5185 46.4341 5.96294 44.9911 5.96294C44.0291 5.96294 43.0301 6.2222 41.9201 6.74072ZM42.0311 18.1481C41.9571 16.9629 41.8831 13.4074 41.8831 7.59257C42.2161 7.48146 42.6601 7.40739 43.2151 7.40739C44.1031 7.40739 44.8061 7.85183 45.3241 8.77776C45.8421 9.70369 46.1011 10.8148 46.1011 12.2222C46.1011 13.9629 45.8051 15.3704 45.2131 16.5555C44.6211 17.7037 43.8811 18.2963 42.9561 18.2963C42.6601 18.2222 42.3641 18.1852 42.0311 18.1481ZM15.1691 1.11109H0.369141V1.85183L1.14614 1.92591C1.73814 2.03702 2.14514 2.25924 2.40414 2.59257C2.66314 2.96294 2.81114 3.55554 2.84814 4.37035C3.14414 8.37035 3.14414 12.1111 2.84814 15.5555C2.77414 16.3704 2.62614 16.9629 2.40414 17.3333C2.14514 17.7037 1.73814 17.9259 1.14614 18L0.369141 18.1111V18.8518H9.91514V18.1111L8.91614 18.037C8.32414 17.9629 7.91714 17.7037 7.65814 17.3704C7.39914 17 7.25114 16.4074 7.21414 15.5926C7.10314 14.1111 7.02914 12.4074 7.02914 10.5185L9.02714 10.5555C10.1001 10.5926 10.8401 11.4074 11.2101 13.037H11.9501V6.99998H11.2101C10.8401 8.59257 10.1371 9.40739 9.02714 9.44443L7.02914 9.48146C7.02914 6.14813 7.10314 3.77776 7.21414 2.33332H10.1371C12.2091 2.33332 13.6151 3.66665 14.4291 6.33332L15.3171 6.07406L15.1691 1.11109ZM13.4301 12.5185C13.4301 14.4444 13.9851 16.037 15.0581 17.2963C16.1311 18.5555 17.7221 19.1481 19.7201 19.1481C21.7181 19.1481 23.3461 18.5185 24.5301 17.2222C25.7141 15.9629 26.2691 14.3704 26.2691 12.4444C26.2691 10.5185 25.7141 8.92591 24.6411 7.66665C23.5681 6.40739 21.9771 5.8148 19.9791 5.8148C17.9811 5.8148 16.3531 6.44443 15.1691 7.74072C13.9851 8.99998 13.4301 10.5926 13.4301 12.5185ZM21.6811 8.29628C22.1251 9.37035 22.3101 10.7778 22.3101 12.4815C22.3101 16.4074 21.4961 18.3333 19.9051 18.3333C19.0911 18.3333 18.4621 17.7778 18.0181 16.6666C17.5741 15.5555 17.3891 14.1481 17.3891 12.4815C17.3891 8.59257 18.2031 6.66665 19.7941 6.66665C20.6081 6.62961 21.2371 7.18517 21.6811 8.29628ZM52.9461 17.2963C54.1671 18.5185 55.7211 19.1481 57.5711 19.1481C58.7181 19.1481 59.7171 18.9259 60.6051 18.4444C61.4931 18 62.1961 17.4444 62.6771 16.7778L62.3071 16.3333C61.4931 16.9629 60.5681 17.2592 59.4951 17.2592C58.0151 17.2592 56.8681 16.7778 56.0911 15.7778C55.2771 14.7778 54.9071 13.5185 54.9811 11.8889H62.8991C62.8991 10.1111 62.4551 8.66665 61.5301 7.5185C60.6051 6.40739 59.3101 5.85183 57.6451 5.85183C55.5731 5.85183 53.9821 6.5185 52.8351 7.8148C51.6881 9.11109 51.1331 10.7037 51.1331 12.5926C51.1331 14.5185 51.7251 16.0741 52.9461 17.2963ZM55.6841 7.99998C56.0911 7.11109 56.6091 6.66665 57.3121 6.66665C58.4221 6.66665 58.9771 8.07406 58.9771 10.9259L55.0551 11C55.0921 9.88887 55.2771 8.88887 55.6841 7.99998ZM72.8521 6.5185C71.8531 6.07406 70.5951 5.8148 69.0781 5.8148C67.5241 5.8148 66.3031 6.2222 65.3781 6.99998C64.4531 7.77776 63.9721 8.74072 63.9721 9.88887C63.9721 10.8889 64.2681 11.6666 64.8231 12.2222C65.3781 12.7778 66.2661 13.2592 67.4131 13.6666C68.4491 14.037 69.1891 14.4074 69.5591 14.7407C69.9291 15.1111 70.1511 15.5185 70.1511 16.0741C70.1511 16.5926 69.9661 17.0741 69.5591 17.4444C69.1891 17.8518 68.6711 18.037 68.0051 18.037C66.3771 18.037 65.1561 16.8518 64.3051 14.4815L63.6761 14.6666L63.8241 18.3704C65.1561 18.8889 66.6361 19.1481 68.2641 19.1481C69.9661 19.1481 71.2611 18.7778 72.2231 18C73.1851 17.2592 73.6661 16.1852 73.6661 14.8518C73.6661 13.9629 73.4441 13.2222 72.9631 12.6666C72.4821 12.1111 71.7051 11.6296 70.5951 11.1852C69.3741 10.7407 68.5231 10.3333 68.0791 9.96294C67.6351 9.59257 67.4131 9.14813 67.4131 8.59257C67.4131 8.03702 67.5611 7.59257 67.8941 7.2222C68.2271 6.85183 68.6341 6.70369 69.1521 6.70369C70.6321 6.70369 71.7051 7.77776 72.3711 9.88887L73.0001 9.70369L72.8521 6.5185ZM37.2581 6.18517C36.7401 5.92591 36.1851 5.8148 35.5561 5.8148C34.9271 5.8148 34.2981 6.07406 33.5951 6.59257C32.8921 7.11109 32.3741 7.8148 31.9671 8.77776L32.0041 5.8148L26.3801 6.92591V7.44443L26.9351 7.48146C27.6381 7.55554 28.0451 8.11109 28.1191 9.11109C28.3411 11.4074 28.3411 13.8518 28.1191 16.4444C28.0451 17.4444 27.6381 17.9629 26.9351 18.0741L26.3801 18.1481V18.8518H34.2241V18.1481L33.2251 18.0741C32.5221 18 32.1151 17.4444 32.0411 16.4444C31.8191 14.2963 31.7821 12 31.9671 9.62961C32.1891 9.25924 32.6701 9.03702 33.4101 8.96294C34.1501 8.88887 35.0011 9.11109 35.8891 9.62961L37.2581 6.18517Z" fill="#222222"/>
</g>
<defs>
<clipPath id="clip0_4047_14618">
<rect width="74" height="20" fill="white"/>
</clipPath>
</defs>
</svg>
