<svg width="132" height="19" viewBox="0 0 132 19" fill="none" xmlns="http://www.w3.org/2000/svg">
<path d="M125.451 0.0961739C126.954 0.189289 129.232 -0.262201 130.377 0.838421C130.74 1.1878 131.099 2.06711 131.119 2.58459C131.279 6.80991 131.148 11.0682 131.183 15.3008C131.189 16.0501 130.936 17.014 130.377 17.5333C129.492 18.4952 126.642 18.2056 125.352 18.1984L125.361 4.43652C125.36 3.17536 125.354 1.53528 125.357 0.249605C125.394 0.188963 125.425 0.137841 125.451 0.0961739ZM127.135 16.6132C127.795 16.6105 128.45 16.6943 128.98 16.3189C129.584 15.578 129.422 14.3367 129.423 13.4018V9.8368L129.421 5.63795C129.42 4.5119 129.543 3.26359 129.109 2.21598C128.412 1.74623 127.963 1.82395 127.128 1.83621C127.128 6.72508 127.075 11.733 127.135 16.6132Z" fill="#222222"/>
<path d="M59.5371 0.0834961C60.8479 0.287788 63.0162 -0.224409 64.1083 0.543203C65.5345 1.54582 65.3248 3.94875 65.3255 5.44015L65.3275 9.70232L65.3281 13.4765C65.3275 15.0092 65.5032 16.1669 64.5377 17.4886C63.5223 18.3397 62.6901 18.2162 61.439 18.2053L59.5094 18.2008C59.447 17.1966 59.4787 15.9308 59.4792 14.9083L59.4798 9.37211L59.4781 3.84331C59.478 2.61319 59.4501 1.30208 59.5371 0.0834961ZM61.2899 16.6121C61.9588 16.6029 62.5541 16.6689 63.1239 16.2944C63.6293 15.7145 63.4873 14.6036 63.4878 13.8501L63.4894 10.653L63.4886 5.95724C63.4879 5.075 63.4806 4.18806 63.4631 3.30751C63.4326 1.76472 62.5813 1.80789 61.2878 1.84238C61.3252 4.74616 61.3358 7.65027 61.3195 10.5542C61.3193 12.4684 61.3726 14.7178 61.2899 16.6121Z" fill="#222222"/>
<path d="M102.042 0.0266375C106.179 -0.250621 105.646 2.57811 105.647 5.64973L105.645 10.1545L105.647 13.8085C105.645 15.823 105.932 17.8322 103.377 18.2829C102.608 18.4422 101.396 18.2483 100.746 17.7921C99.5583 16.9571 99.7876 14.7084 99.7869 13.3909L99.7862 9.61357L99.7876 5.26449C99.7889 4.08079 99.651 2.03494 100.277 0.961179C100.579 0.444808 101.441 0.125295 102.042 0.0266375ZM102.937 16.6978C103.342 16.5919 103.472 16.4045 103.74 16.0822C103.859 15.4507 103.827 14.3698 103.828 13.6964L103.83 10.2208L103.829 5.51756C103.828 4.63746 103.848 3.75065 103.8 2.87245C103.751 1.98994 103.269 1.74698 102.47 1.72827C102.125 1.85092 101.894 2.00468 101.733 2.34186C101.632 2.55574 101.635 2.86404 101.627 3.09787C101.575 4.48312 101.517 15.5652 101.697 16.0583C101.785 16.298 101.953 16.5119 102.189 16.6164C102.423 16.7191 102.688 16.7042 102.937 16.6978Z" fill="#222222"/>
<path d="M0.17522 0.104391C3.06976 0.256714 5.81624 -0.781245 5.6799 3.37385C5.633 4.80331 5.77358 6.35432 5.63 7.78854C5.60253 8.06286 5.06404 8.59325 4.91669 8.87527C5.13793 9.06235 5.6665 9.46096 5.73975 9.7476C6.08706 11.1066 5.95367 12.5169 5.97529 13.9153C5.99227 15.0091 6.02716 16.1342 5.508 17.1391C4.78115 18.6004 1.44862 18.2047 0.0151785 18.1984L0.0184184 4.88058L0.0102011 1.79989C0.00790836 1.48188 -0.0217602 0.429511 0.0321227 0.177488L0.17522 0.104391ZM1.78777 16.6021C2.57892 16.6015 3.26481 16.7384 3.8155 16.1873L3.83344 16.1693C4.34982 15.3174 4.10168 11.5811 3.99522 10.4701C3.90276 9.50516 2.4565 9.72837 1.7556 9.74734C1.89097 11.6459 1.79329 14.643 1.78777 16.6021ZM1.79213 8.14476C2.43478 8.14828 3.22543 8.2234 3.77725 7.90447C4.19219 7.06898 4.03237 5.19031 4.04413 4.20797C4.07206 1.8771 3.93338 1.86712 1.75756 1.8413C1.86525 3.67589 1.79513 6.26296 1.79213 8.14476Z" fill="#222222"/>
<path d="M75.1028 0.0800781C76.5855 0.217142 79.4152 -0.238913 80.3931 0.909441C81.4682 2.1721 80.9248 6.01525 81.011 7.65696C81.0613 8.60056 80.4107 9.19688 79.7751 9.71957C80.3121 12.5755 80.7504 15.3492 81.2573 18.1943L79.3231 18.2015C79.0951 17.134 78.8149 14.719 78.6634 13.5763C78.5445 13.0963 78.4785 12.4181 78.3903 11.9133C78.2878 11.3206 78.1258 10.6291 78.0755 10.0419L76.8311 10.0387C76.7913 12.6888 76.8089 15.5434 76.8416 18.197L75.0276 18.1958C75.1152 12.9926 74.9878 7.7577 75.0407 2.55167C75.0446 2.1142 74.9878 0.408393 75.1028 0.0800781ZM76.8475 8.4691C77.3681 8.47967 78.4256 8.57676 78.7947 8.22497C78.8489 8.17261 78.9005 8.11803 78.9501 8.0613C79.5361 7.27439 79.2166 4.33396 79.2389 3.27944C79.25 2.77774 79.0155 2.27637 78.6157 1.94877C77.9396 1.82866 77.5255 1.82677 76.839 1.83837C76.8246 3.20387 76.8213 4.56949 76.8279 5.93505C76.8285 6.70781 76.8017 7.71173 76.8475 8.4691Z" fill="#222222"/>
<path d="M8.32899 0.0830078C12.2493 0.365483 14.6514 -0.890202 14.3669 4.76725C14.2705 6.68439 14.8914 8.41263 13.0386 9.69348C13.5113 12.2891 14.2169 15.6292 14.4905 18.2104C13.8543 18.1968 13.2178 18.19 12.5814 18.1898C12.4838 16.9484 12.125 15.0046 11.9477 13.7201C11.763 12.5256 11.5575 11.2197 11.3235 10.0406L10.1461 10.0414C10.1891 10.8903 10.154 12.001 10.154 12.8719L10.1594 18.1828C9.6205 18.2133 8.87905 18.1958 8.32422 18.1978L8.32899 0.0830078ZM10.1369 8.4764C10.7039 8.48025 11.7416 8.59404 12.1416 8.1522C12.7006 7.43786 12.6041 6.12707 12.5721 5.22044C12.4818 2.65547 13.0612 1.7847 10.1101 1.84189C10.1988 3.65581 10.2085 6.67592 10.1369 8.4764Z" fill="#222222"/>
<path d="M91.7579 0.129317C96.7889 0.109103 97.9934 -0.295308 97.7517 5.65349C97.6824 7.36236 98.075 8.57318 96.4061 9.67693C97.0077 12.0981 97.4577 15.6682 97.9215 18.1754C97.3297 18.2223 96.555 18.1979 95.9554 18.1842C95.764 16.7684 95.6157 15.3648 95.3446 13.9612C95.2963 12.7846 94.8234 11.2033 94.7352 10.0406L93.5137 10.0463C93.564 12.7087 93.5111 15.5176 93.5196 18.196L91.7474 18.2019C91.7102 15.2125 91.7396 12.1544 91.7389 9.15958C91.7272 6.14945 91.7337 3.13932 91.7579 0.129317ZM93.4941 8.47557C94.2668 8.47407 95.0507 8.60722 95.6124 8.0885C95.99 7.4783 96.0037 6.63805 95.9763 5.93466C95.9286 4.72208 96.1507 3.27547 95.6007 2.17276C94.8671 1.76366 94.3295 1.82462 93.5006 1.84216C93.513 3.98681 93.5607 6.34116 93.4941 8.47557Z" fill="#222222"/>
<path d="M121.157 0.0927715C121.574 0.0919238 122.491 0.0198056 122.757 0.316757C122.832 0.893835 122.787 2.09064 122.787 2.72849L122.785 7.38698L122.785 14.3942C122.786 15.5632 122.843 17.0548 122.77 18.1939L121.998 18.1971C121.666 18.2027 121.303 18.1911 120.968 18.1864C120.559 16.959 120.361 15.3884 120.011 14.11C119.22 11.226 118.662 8.20897 117.915 5.32834C118.057 9.48754 118.029 14.0264 117.983 18.206L116.43 18.1952C116.369 12.2121 116.42 6.12556 116.428 0.134569L118.043 0.107965C118.242 0.0911414 118.52 0.0917285 118.574 0.343165C118.741 1.11749 118.853 1.92573 119.034 2.69693C119.525 4.78928 119.959 6.88886 120.376 8.99706C120.555 9.86776 120.965 12.4511 121.242 13.1193C121.26 12.2316 121.158 11.027 121.154 10.0589L121.157 0.0927715Z" fill="#222222"/>
<path d="M55.3293 0.123594C55.81 0.128614 56.3683 0.0997279 56.8546 0.0864258C56.975 1.64702 56.8879 4.49179 56.8872 6.12019L56.8953 18.1952L55.0818 18.1963C54.46 15.5089 53.7168 12.8399 53.1392 10.1354C52.9027 9.02827 52.6196 7.64635 52.2585 6.58974L52.0039 5.30367C51.9954 5.80198 51.9739 7.06301 52.0848 7.51783C52.0311 8.47043 52.0831 10.0315 52.0839 11.0385L52.0905 18.1883C51.6004 18.2103 50.9901 18.194 50.4908 18.1944C50.5972 14.7209 50.5195 10.834 50.52 7.33186L50.5197 2.82504C50.5193 1.9735 50.5483 0.948979 50.4844 0.116747C51.196 0.131288 51.9157 0.108922 52.6277 0.0937941C53.4913 4.4627 54.4764 8.84478 55.3187 13.2027C55.4011 12.1953 55.2815 10.706 55.2987 9.63124C55.3487 6.5051 55.2068 3.23701 55.3293 0.123594Z" fill="#222222"/>
<path d="M112.138 0.0974304C112.65 0.150835 113.399 0.00177199 113.833 0.254643C113.9 0.323175 113.993 0.44596 113.989 0.541227C113.954 1.30427 113.942 2.08421 113.945 2.84648L113.95 11.2202C113.95 12.5394 114.204 16.6182 113.233 17.5454C111.871 18.8452 108.322 18.6603 108.155 16.1524C108.036 14.3601 108.071 12.593 108.071 10.7623L108.083 0.123447C108.533 0.123252 108.983 0.117383 109.433 0.105972C109.622 0.0808677 109.885 0.0265506 109.885 0.306939C109.888 1.5754 109.885 2.84419 109.885 4.11279L109.882 11.9498C109.88 13.189 109.848 14.5063 109.894 15.7383C109.939 16.9731 111.964 17.1297 112.061 15.6071C112.166 13.9598 112.12 12.3208 112.12 10.6702C112.103 7.14601 112.11 3.62165 112.138 0.0974304Z" fill="#222222"/>
<path d="M29.3325 0.0844727C29.8431 0.136442 30.5059 0.107752 31.0304 0.0994052C30.9847 2.69926 31.0947 5.38949 30.9977 7.97473C31.9651 5.66949 33.0076 2.22351 34.0723 0.128422C34.5994 0.0980359 35.3717 0.12288 35.9179 0.124836C35.0347 2.7391 33.546 5.90847 32.5017 8.53897C32.8857 9.74555 33.3829 10.8916 33.8377 12.065C34.3822 13.4939 34.914 14.9276 35.4331 16.3659C35.6603 16.9878 35.9437 17.5679 36.1679 18.2036L34.1997 18.194C33.7906 17.5263 32.7974 14.6349 32.5313 13.8424C32.0612 12.4429 31.4541 10.9135 30.997 9.52398C31.1313 12.32 30.895 15.4232 31.0499 18.1974L29.2405 18.1997L29.2467 5.87599L29.2454 2.16033C29.2453 1.79882 29.1889 0.266725 29.3325 0.0844727Z" fill="#222222"/>
<path d="M46.1269 0.149461L47.9105 0.078125C47.9284 0.606364 47.9193 1.18455 47.9218 1.71696L47.9254 10.9738C47.9257 12.5902 47.9458 14.2345 47.8971 15.8288C47.8688 16.7569 47.418 17.8563 46.4818 18.1008C44.0326 18.7404 42.2035 18.099 42.2027 15.3511C42.2016 11.3325 42.176 7.60786 42.1922 3.61389C42.1946 3.0655 42.1361 0.392682 42.2717 0.0914273C42.7564 0.151613 43.3963 0.0460434 43.8605 0.163154C44.2144 0.637141 43.8185 13.6403 43.9718 15.6113C43.9978 15.9466 44.0829 16.24 44.3507 16.4636C44.5795 16.6548 44.8703 16.7257 45.1643 16.6962C45.4364 16.6688 45.702 16.562 45.875 16.3429C46.1168 16.0366 46.1321 15.4859 46.1552 15.1083C46.2152 14.125 46.1755 13.1204 46.1749 12.135L46.1725 6.7307L46.1776 2.58402C46.1779 1.87724 46.2111 0.82911 46.1269 0.149461Z" fill="#222222"/>
<path d="M85.5559 0.0252505C89.9357 -0.266353 89.1316 3.05045 89.1231 6.27015L87.5299 6.274C87.5286 5.27406 87.5365 4.2734 87.526 3.27313C87.5169 2.74176 87.3699 1.97949 86.7774 1.80128C84.7525 1.19264 85.1803 3.8922 85.1797 5.04623L85.1803 8.98321L85.181 13.2504C85.1784 14.0747 85.1431 15.156 85.2039 15.9616C85.3025 16.1031 85.4762 16.3407 85.5892 16.4556C85.942 16.8051 86.7297 16.7922 87.0694 16.4309C87.5371 15.9336 87.5567 15.1992 87.5548 14.5545C87.5515 13.4546 87.5489 12.3533 87.5495 11.2528L86.8153 11.2865C86.6331 11.2984 86.4678 11.3267 86.3045 11.2487C86.0615 10.9656 86.1765 10.1369 86.1693 9.66794C86.78 9.66096 88.9095 9.53635 89.2472 9.83774C89.3223 10.217 89.3249 12.584 89.3073 13.0736C89.2531 14.6114 89.4046 16.8045 89.2302 18.2879L89.0944 18.3388C88.7749 18.2234 88.5548 17.7232 88.4052 17.4275C87.3725 18.4402 85.8688 18.6123 84.5872 17.9768C83.032 17.2054 83.3494 14.5239 83.3481 13.0488L83.3461 9.00114C83.3461 7.11523 83.3305 5.22437 83.3553 3.33886C83.3795 1.52148 83.6531 0.516387 85.5559 0.0252505Z" fill="#222222"/>
<path d="M23.4259 0.0281802C27.6165 -0.364233 26.8045 3.42258 26.8085 6.34377C26.2777 6.33281 25.7179 6.3409 25.1845 6.33973C25.1688 5.17005 25.2639 3.35763 25.0486 2.26255C24.9063 2.10084 24.7396 1.94115 24.5859 1.78824L23.8052 1.72264C23.5371 1.87575 23.2989 2.11134 23.0697 2.32065C22.7124 3.58311 22.9601 8.03184 22.9131 9.60273C22.8755 10.8602 22.7956 15.148 23.0537 16.1099C23.1104 16.1733 23.1686 16.2354 23.228 16.2963C23.8494 16.9301 24.6605 16.9256 25.0251 16.041C25.2143 15.5818 25.1805 15.2506 25.1768 14.7631C25.1685 13.6902 25.1764 12.6172 25.2006 11.5446L26.8006 11.4919C26.808 13.1635 27.4171 17.8862 25.175 18.2062C21.0559 18.7939 21.2116 16.7146 21.2107 13.5812L21.2104 9.72884L21.2121 5.18739C21.2126 4.33077 21.1773 3.45088 21.2434 2.59647C21.3694 0.966242 21.7939 0.323501 23.4259 0.0281802Z" fill="#222222"/>
<path d="M72.1512 0.106842C72.4294 0.0981693 72.3739 0.064392 72.6084 0.182416C72.869 0.512622 72.7397 1.39063 72.7116 1.83795C71.6593 1.82745 70.6063 1.83025 69.5534 1.84642C69.6847 3.54114 69.5945 6.37072 69.5939 8.1446C70.1948 8.11604 71.2275 8.10919 71.8135 8.14988C71.8494 8.62935 71.818 9.41861 71.8141 9.91998C71.1093 9.9417 70.2752 9.91822 69.5605 9.91698C69.62 10.6584 69.5945 11.6796 69.5939 12.4377L69.588 16.5992C70.1517 16.597 72.2831 16.5223 72.6927 16.6483C72.8488 16.7916 72.8063 16.7214 72.8488 16.9476L72.837 18.1806C71.3569 18.2585 69.3221 18.1959 67.8008 18.1948C67.7721 17.4425 67.7871 16.6262 67.7949 15.87C67.8518 10.6316 67.7054 5.35597 67.8217 0.121383C69.2646 0.133968 70.7082 0.129142 72.1512 0.106842Z" fill="#222222"/>
<path d="M16.983 0.102179C17.3982 0.131261 18.3155 0.0103681 18.5909 0.248894C18.6568 0.894439 18.6273 1.99076 18.6271 2.66219L18.6254 6.83991C18.6247 8.13303 18.6834 17.9495 18.5481 18.1931C17.9622 18.1975 17.3764 18.1977 16.7905 18.1937L16.8019 2.87939C16.8032 2.07461 16.8131 1.2714 16.7734 0.467531C16.761 0.216682 16.7663 0.209639 16.983 0.102179Z" fill="#222222"/>
<path d="M52.0035 5.30371L52.2582 6.58978L52.1227 6.70552C52.1088 6.89873 52.1085 7.38224 52.0845 7.51787C51.9735 7.06305 51.9951 5.80202 52.0035 5.30371Z" fill="#222222"/>
</svg>
