<svg width="51" height="48" viewBox="0 0 51 48" fill="none" xmlns="http://www.w3.org/2000/svg">
<g clip-path="url(#clip0_4084_28561)">
<rect width="50.2857" height="48" fill="#333333"/>
<g clip-path="url(#clip1_4084_28561)">
<rect width="50.2857" height="10.7276" transform="translate(0 37.2725)" fill="#333333"/>
<path d="M21.05 44.2725H18.4409V44.0749L19.6089 42.8314C19.975 42.4362 20.2539 41.9772 20.2539 41.4252C20.2539 41.0126 20.0273 40.693 19.5973 40.693C19.2312 40.693 18.9639 40.9196 18.7547 41.1986L18.5048 40.7104C18.8767 40.449 19.2196 40.2804 19.6902 40.2804C20.3875 40.2804 20.9744 40.693 20.9744 41.4368C20.9744 42.0469 20.5619 42.4595 20.1667 42.8662L19.3707 43.6914C19.8529 43.6856 20.3411 43.6856 20.8233 43.6856H21.172L21.05 44.2725ZM23.4764 44.3422C22.2794 44.3422 21.6925 43.4473 21.6925 42.3317C21.6925 41.3031 22.3549 40.2863 23.4706 40.2863C24.6211 40.2863 25.2661 41.2334 25.2661 42.3142C25.2661 43.4008 24.6444 44.3422 23.4764 44.3422ZM23.4764 43.9761C24.3015 43.9761 24.4817 42.9592 24.4817 42.32C24.4817 41.6285 24.348 40.6581 23.4531 40.6581C22.6513 40.6581 22.4769 41.7157 22.4769 42.3317C22.4769 42.9302 22.7094 43.9761 23.4764 43.9761ZM28.3418 44.2725H25.7328V44.0749L26.9008 42.8314C27.2668 42.4362 27.5458 41.9772 27.5458 41.4252C27.5458 41.0126 27.3191 40.693 26.8891 40.693C26.5231 40.693 26.2558 40.9196 26.0466 41.1986L25.7967 40.7104C26.1686 40.449 26.5114 40.2804 26.9821 40.2804C27.6794 40.2804 28.2663 40.693 28.2663 41.4368C28.2663 42.0469 27.8537 42.4595 27.4586 42.8662L26.6625 43.6914C27.1448 43.6856 27.6329 43.6856 28.1152 43.6856H28.4639L28.3418 44.2725ZM31.3319 44.2725H30.623V43.1103H28.9437L28.8681 42.9244L30.9891 40.3153H31.3435V42.6745H31.9014V43.1103H31.3435C31.3435 43.4996 31.3319 43.8831 31.3319 44.2725ZM30.623 42.6745V41.2508L29.4841 42.6745H30.623Z" fill="white"/>
</g>
<g clip-path="url(#clip2_4084_28561)">
<g clip-path="url(#clip3_4084_28561)">
<g clip-path="url(#clip4_4084_28561)">
<path d="M11.2736 8.05933V5.07944H10.7148L13.136 3.03076L15.5572 5.07944H14.9984V8.05933" stroke="white" stroke-width="0.595979" stroke-linecap="round" stroke-linejoin="round"/>
<path d="M12.8217 5.35889H12.0581C11.9861 5.35889 11.9277 5.41726 11.9277 5.48926V6.25285C11.9277 6.32486 11.9861 6.38323 12.0581 6.38323H12.8217C12.8937 6.38323 12.9521 6.32486 12.9521 6.25285V5.48926C12.9521 5.41726 12.8937 5.35889 12.8217 5.35889Z" fill="white"/>
<path d="M14.2182 5.35889H13.4546C13.3826 5.35889 13.3242 5.41726 13.3242 5.48926V6.25285C13.3242 6.32486 13.3826 6.38323 13.4546 6.38323H14.2182C14.2902 6.38323 14.3486 6.32486 14.3486 6.25285V5.48926C14.3486 5.41726 14.2902 5.35889 14.2182 5.35889Z" fill="white"/>
<path d="M12.8217 6.75586H12.0581C11.9861 6.75586 11.9277 6.81423 11.9277 6.88623V7.64983C11.9277 7.72183 11.9861 7.7802 12.0581 7.7802H12.8217C12.8937 7.7802 12.9521 7.72183 12.9521 7.64983V6.88623C12.9521 6.81423 12.8937 6.75586 12.8217 6.75586Z" fill="white"/>
<path d="M14.2182 6.75586H13.4546C13.3826 6.75586 13.3242 6.81423 13.3242 6.88623V7.64983C13.3242 7.72183 13.3826 7.7802 13.4546 7.7802H14.2182C14.2902 7.7802 14.3486 7.72183 14.3486 7.64983V6.88623C14.3486 6.81423 14.2902 6.75586 14.2182 6.75586Z" fill="white"/>
</g>
<path d="M20.7349 6.63818H20.2656V5.27935C20.2656 4.93964 20.0957 4.84131 19.832 4.84131C19.5906 4.84131 19.385 4.98434 19.2778 5.12738V6.63818H18.8084V3.6568H19.2778V4.76979C19.4208 4.59994 19.6979 4.42561 20.0376 4.42561C20.5025 4.42561 20.7349 4.66698 20.7349 5.1095V6.63818ZM22.3457 6.69182C21.6573 6.69182 21.2371 6.17332 21.2371 5.55648C21.2371 4.93517 21.6573 4.42561 22.3457 4.42561C23.034 4.42561 23.4542 4.93517 23.4542 5.55648C23.4542 6.17332 23.034 6.69182 22.3457 6.69182ZM22.3457 6.27613C22.748 6.27613 22.967 5.94089 22.967 5.55648C22.967 5.17655 22.748 4.84131 22.3457 4.84131C21.9479 4.84131 21.7244 5.17655 21.7244 5.55648C21.7244 5.94089 21.9479 6.27613 22.3457 6.27613ZM27.0757 6.63818H26.6064V5.23018C26.6064 4.99775 26.5036 4.84131 26.2488 4.84131C26.0387 4.84131 25.8421 4.98434 25.7482 5.12738V6.63818H25.2789V5.23018C25.2789 4.99775 25.1805 4.84131 24.9257 4.84131C24.7157 4.84131 24.5235 4.98881 24.4251 5.12738V6.63818H23.9558V4.47925H24.4251V4.76979C24.519 4.64016 24.8006 4.42561 25.1314 4.42561C25.4532 4.42561 25.6499 4.58653 25.7214 4.81896C25.8421 4.62676 26.1281 4.42561 26.4544 4.42561C26.8478 4.42561 27.0757 4.64016 27.0757 5.07821V6.63818ZM28.7072 6.69182C28.0546 6.69182 27.5763 6.24037 27.5763 5.55648C27.5763 4.9307 28.0322 4.42561 28.6714 4.42561C29.3195 4.42561 29.7308 4.91729 29.7308 5.59671V5.71293H28.068C28.1037 6.03476 28.3451 6.30742 28.7519 6.30742C28.9664 6.30742 29.2123 6.22249 29.3687 6.06604L29.5833 6.37446C29.3642 6.58008 29.0469 6.69182 28.7072 6.69182ZM29.2793 5.37769C29.2659 5.12291 29.0916 4.81002 28.6669 4.81002C28.2691 4.81002 28.0814 5.11844 28.0635 5.37769H29.2793ZM31.0969 7.51427C30.7304 7.51427 30.4577 7.43382 30.1895 7.19244L30.4086 6.85274C30.5874 7.05388 30.8108 7.12987 31.0969 7.12987C31.4053 7.12987 31.7361 6.98683 31.7361 6.52644V6.2806C31.5707 6.49962 31.3249 6.64265 31.0433 6.64265C30.4935 6.64265 30.0867 6.24484 30.0867 5.53413C30.0867 4.83237 30.4846 4.42561 31.0433 4.42561C31.3159 4.42561 31.5618 4.5463 31.7361 4.77873V4.47925H32.2054V6.52644C32.2054 7.30419 31.6244 7.51427 31.0969 7.51427ZM31.1818 6.22249C31.4009 6.22249 31.6288 6.09286 31.7361 5.93642V5.12738C31.6288 4.97093 31.4009 4.84131 31.1818 4.84131C30.8064 4.84131 30.5695 5.11844 30.5695 5.53413C30.5695 5.94983 30.8064 6.22249 31.1818 6.22249ZM34.7624 6.63818H34.2931V6.35211C34.1411 6.52197 33.8729 6.69182 33.5332 6.69182C33.0684 6.69182 32.8359 6.44598 32.8359 6.00794V4.47925H33.3053V5.83361C33.3053 6.16885 33.4751 6.27613 33.7433 6.27613C33.9802 6.27613 34.1858 6.13756 34.2931 5.99453V4.47925H34.7624V6.63818ZM35.6313 4.21553C35.4704 4.21553 35.3408 4.0859 35.3408 3.92499C35.3408 3.76408 35.4704 3.63445 35.6313 3.63445C35.7922 3.63445 35.9218 3.76408 35.9218 3.92499C35.9218 4.0859 35.7922 4.21553 35.6313 4.21553ZM35.8637 6.63818H35.3944V4.47925H35.8637V6.63818ZM38.484 6.63818H38.0147V6.34317C37.8493 6.55773 37.6034 6.69182 37.3218 6.69182C36.772 6.69182 36.3653 6.27166 36.3653 5.55648C36.3653 4.85919 36.7676 4.42561 37.3218 4.42561C37.5945 4.42561 37.8448 4.5463 38.0147 4.77873V3.6568H38.484V6.63818ZM37.4604 6.27613C37.6794 6.27613 37.9119 6.1465 38.0147 5.98559V5.13185C37.9119 4.97093 37.6794 4.84131 37.4604 4.84131C37.0849 4.84131 36.848 5.14079 36.848 5.55648C36.848 5.97665 37.0849 6.27613 37.4604 6.27613ZM40.1157 6.69182C39.4631 6.69182 38.9849 6.24037 38.9849 5.55648C38.9849 4.9307 39.4408 4.42561 40.08 4.42561C40.7281 4.42561 41.1393 4.91729 41.1393 5.59671V5.71293H39.4765C39.5123 6.03476 39.7537 6.30742 40.1604 6.30742C40.375 6.30742 40.6208 6.22249 40.7773 6.06604L40.9918 6.37446C40.7728 6.58008 40.4554 6.69182 40.1157 6.69182ZM40.6879 5.37769C40.6745 5.12291 40.5001 4.81002 40.0755 4.81002C39.6777 4.81002 39.49 5.11844 39.4721 5.37769H40.6879Z" fill="white"/>
</g>
<g clip-path="url(#clip5_4084_28561)">
<path d="M19.1488 14.5664H18.8089V12.9278H18.222V12.6285H19.7357V12.9278H19.1488V14.5664ZM21.2632 14.6013C20.6821 14.6013 20.2725 14.1771 20.2725 13.5989C20.2725 13.0207 20.6821 12.5965 21.2632 12.5965C21.8414 12.5965 22.254 13.0207 22.254 13.5989C22.254 14.1771 21.8414 14.6013 21.2632 14.6013ZM21.2632 14.2991C21.6525 14.2991 21.9053 13.9969 21.9053 13.5989C21.9053 13.198 21.6525 12.8987 21.2632 12.8987C20.871 12.8987 20.6211 13.198 20.6211 13.5989C20.6211 13.9969 20.871 14.2991 21.2632 14.2991ZM23.325 14.5664H22.9851V12.6285H23.8393C24.246 12.6285 24.4698 12.9045 24.4698 13.2357C24.4698 13.564 24.2431 13.8401 23.8393 13.8401H23.325V14.5664ZM23.7928 13.5408C23.9846 13.5408 24.1211 13.4188 24.1211 13.2357C24.1211 13.0498 23.9846 12.9278 23.7928 12.9278H23.325V13.5408H23.7928ZM26.6581 14.5664H26.3181V12.6285H27.1723C27.5791 12.6285 27.8028 12.9045 27.8028 13.2357C27.8028 13.564 27.5762 13.8401 27.1723 13.8401H26.6581V14.5664ZM27.1258 13.5408C27.3176 13.5408 27.4541 13.4188 27.4541 13.2357C27.4541 13.0498 27.3176 12.9278 27.1258 12.9278H26.6581V13.5408H27.1258ZM29.9975 14.5664H29.6023L29.1752 13.843H28.8353V14.5664H28.4954V12.6285H29.3466C29.7302 12.6285 29.9829 12.8755 29.9829 13.2357C29.9829 13.5786 29.7563 13.7674 29.521 13.8052L29.9975 14.5664ZM29.3031 13.5437C29.4948 13.5437 29.6343 13.4217 29.6343 13.2328C29.6343 13.0469 29.4948 12.9278 29.3031 12.9278H28.8353V13.5437H29.3031ZM31.6358 14.6013C31.0548 14.6013 30.6451 14.1771 30.6451 13.5989C30.6451 13.0207 31.0548 12.5965 31.6358 12.5965C32.214 12.5965 32.6266 13.0207 32.6266 13.5989C32.6266 14.1771 32.214 14.6013 31.6358 14.6013ZM31.6358 14.2991C32.0252 14.2991 32.2779 13.9969 32.2779 13.5989C32.2779 13.198 32.0252 12.8987 31.6358 12.8987C31.2436 12.8987 30.9937 13.198 30.9937 13.5989C30.9937 13.9969 31.2436 14.2991 31.6358 14.2991Z" fill="white"/>
<path d="M11.2795 25.2368H9.95598C9.71193 24.5516 9.43033 23.8851 9.14873 23.2093H6.98041L6.10745 25.2368H5.42223L8.16313 18.9008H8.55737C8.86713 19.8113 9.28014 20.6749 9.665 21.5479C10.1907 22.7869 10.7351 24.0165 11.2795 25.2368ZM8.87652 22.5522L8.05049 20.581L7.24324 22.5522H8.87652ZM18.5691 25.3213H18.0998C17.7994 24.4014 17.4146 23.5003 17.086 22.5898C16.8326 21.8858 16.5979 21.1818 16.3633 20.4684L14.5423 25.3213H14.1668C14.0917 25.0772 14.0072 24.8332 13.9133 24.5985C13.6036 23.7913 13.2938 22.984 12.9935 22.1674C12.5992 21.0879 12.2331 19.9897 11.8389 18.9102H13.0685C13.6411 20.4872 14.1762 22.0735 14.7206 23.6599L16.4665 18.7694H16.9359L18.6536 23.688L20.4371 18.9102H21.0003L18.5691 25.3213ZM27.422 25.2368H26.0985C25.8544 24.5516 25.5728 23.8851 25.2912 23.2093H23.1229L22.25 25.2368H21.5647L24.3056 18.9008H24.6999C25.0096 19.8113 25.4226 20.6749 25.8075 21.5479C26.3332 22.7869 26.8776 24.0165 27.422 25.2368ZM25.019 22.5522L24.193 20.581L23.3857 22.5522H25.019ZM33.2192 25.2368H31.8769C31.3043 24.2794 30.7317 23.3313 30.1685 22.3645C30.0277 22.3645 29.8869 22.3645 29.7461 22.3551L29.915 22.0923C30.7505 22.0923 31.2667 21.5479 31.2667 20.7218C31.2667 19.9333 30.7035 19.4734 29.9432 19.4734C29.8306 19.4734 29.7179 19.4734 29.6053 19.4828V25.2368H28.4601L28.4507 18.9102H30.2154C31.2855 18.9102 32.3837 19.4546 32.3837 20.6561C32.3837 21.4352 31.952 21.9515 31.2292 22.1861C31.8581 23.2281 32.5715 24.2137 33.2192 25.2368ZM35.9898 25.2368H34.2626C34.2626 23.1248 34.2532 21.0222 34.2532 18.9102H36.2714C36.6562 18.9102 37.0411 18.9102 37.4165 18.9665C38.8902 19.1824 40.1574 20.4215 40.1574 21.9515C40.1574 23.7068 38.9935 25.0021 37.2476 25.1899C36.8252 25.2368 36.4028 25.2368 35.9898 25.2368ZM36.1399 19.5203H35.4359V24.5985C35.6988 24.6267 35.9616 24.6267 36.2244 24.6267C36.6468 24.6267 37.1443 24.6267 37.5386 24.4765C38.6274 24.0729 38.8809 23.1999 38.8809 22.1392C38.8809 20.994 38.327 19.8864 37.1443 19.6048C36.8158 19.5297 36.4779 19.5203 36.1399 19.5203ZM40.8169 24.6173L41.1736 23.6317C41.4834 24.2606 41.9715 24.7393 42.7036 24.7393C43.2856 24.7393 43.7643 24.4014 43.7643 23.7819C43.7643 22.2237 41.0047 22.6085 41.0047 20.4684C41.0047 19.4734 41.8964 18.8163 42.8351 18.8163C43.3795 18.8163 44.0084 18.9947 44.4308 19.3608L44.0365 20.2149C43.7925 19.755 43.3607 19.3983 42.8257 19.3983C42.3563 19.3983 42.0466 19.755 42.0466 20.2149C42.0466 21.7731 44.7969 21.332 44.7969 23.4627C44.7969 24.5985 43.8113 25.3495 42.7224 25.3495C41.9621 25.3495 41.3895 25.1054 40.8169 24.6173Z" fill="white"/>
<g clip-path="url(#clip6_4084_28561)">
<g clip-path="url(#clip7_4084_28561)">
<path d="M15.3566 29.1621L15.7365 30.5388L17.1624 30.474L15.9712 31.2607L16.4741 32.5994L15.3566 31.7077L14.2391 32.5994L14.742 31.2607L13.5508 30.474L14.9767 30.5388L15.3566 29.1621Z" fill="white"/>
</g>
<g clip-path="url(#clip8_4084_28561)">
<path d="M20.4992 29.1621L20.8791 30.5388L22.305 30.474L21.1138 31.2607L21.6166 32.5994L20.4992 31.7077L19.3817 32.5994L19.8846 31.2607L18.6934 30.474L20.1192 30.5388L20.4992 29.1621Z" fill="white"/>
</g>
<g clip-path="url(#clip9_4084_28561)">
<path d="M25.6418 29.1621L26.0217 30.5388L27.4476 30.474L26.2564 31.2607L26.7592 32.5994L25.6418 31.7077L24.5243 32.5994L25.0272 31.2607L23.8359 30.474L25.2618 30.5388L25.6418 29.1621Z" fill="white"/>
</g>
<g clip-path="url(#clip10_4084_28561)">
<path d="M30.7804 29.1621L31.1604 30.5388L32.5862 30.474L31.395 31.2607L31.8979 32.5994L30.7804 31.7077L29.663 32.5994L30.1658 31.2607L28.9746 30.474L30.4005 30.5388L30.7804 29.1621Z" fill="white"/>
</g>
<g clip-path="url(#clip11_4084_28561)">
<path d="M35.9211 29.1621L36.301 30.5388L37.7269 30.474L36.5357 31.2607L37.0385 32.5994L35.9211 31.7077L34.8036 32.5994L35.3064 31.2607L34.1152 30.474L35.5411 30.5388L35.9211 29.1621Z" fill="white"/>
</g>
</g>
</g>
</g>
<path d="M45.4362 17.0021C45.4362 17.3682 45.142 17.6654 44.7728 17.6654C44.4068 17.6654 44.1095 17.3682 44.1095 17.0021C44.1095 16.6329 44.4068 16.3388 44.7728 16.3388C45.142 16.3388 45.4362 16.6329 45.4362 17.0021ZM45.3423 17.0021C45.3423 16.683 45.0889 16.4326 44.7728 16.4326C44.4599 16.4326 44.2065 16.683 44.2065 17.0021C44.2065 17.3119 44.4599 17.5684 44.7728 17.5684C45.0889 17.5684 45.3423 17.3119 45.3423 17.0021ZM45.0826 17.3838H44.9543L44.7572 17.0834H44.6226V17.3838H44.5194V16.6235H44.8292C44.9574 16.6235 45.0732 16.7142 45.0732 16.855C45.0732 17.024 44.923 17.0803 44.8792 17.0803L45.0826 17.3838ZM44.9668 16.855C44.9668 16.7706 44.8949 16.7142 44.8292 16.7142H44.6226V16.9896H44.8292C44.8949 16.9896 44.9668 16.9333 44.9668 16.855Z" fill="white"/>
</g>
<defs>
<clipPath id="clip0_4084_28561">
<rect width="50.2857" height="48" fill="white"/>
</clipPath>
<clipPath id="clip1_4084_28561">
<rect width="50.2857" height="10.7276" fill="white" transform="translate(0 37.2725)"/>
</clipPath>
<clipPath id="clip2_4084_28561">
<rect width="41" height="30.7873" fill="white" transform="translate(5.14062 2.28564)"/>
</clipPath>
<clipPath id="clip3_4084_28561">
<rect width="31.7162" height="6.70476" fill="white" transform="translate(9.7832 2.28564)"/>
</clipPath>
<clipPath id="clip4_4084_28561">
<rect width="6.70476" height="6.70476" fill="white" transform="translate(9.7832 2.28564)"/>
</clipPath>
<clipPath id="clip5_4084_28561">
<rect width="41" height="20.5067" fill="white" transform="translate(5.14062 12.5664)"/>
</clipPath>
<clipPath id="clip6_4084_28561">
<rect width="24.5841" height="5.16571" fill="white" transform="translate(13.3477 27.9072)"/>
</clipPath>
<clipPath id="clip7_4084_28561">
<rect width="4.02286" height="4.02286" fill="white" transform="translate(13.3477 29.0503)"/>
</clipPath>
<clipPath id="clip8_4084_28561">
<rect width="4.02286" height="4.02286" fill="white" transform="translate(18.4883 29.0503)"/>
</clipPath>
<clipPath id="clip9_4084_28561">
<rect width="4.02286" height="4.02286" fill="white" transform="translate(23.6289 29.0503)"/>
</clipPath>
<clipPath id="clip10_4084_28561">
<rect width="4.02286" height="4.02286" fill="white" transform="translate(28.7695 29.0503)"/>
</clipPath>
<clipPath id="clip11_4084_28561">
<rect width="4.02286" height="4.02286" fill="white" transform="translate(33.9082 29.0503)"/>
</clipPath>
</defs>
</svg>
