<svg width="59" height="32" viewBox="0 0 59 32" fill="none" xmlns="http://www.w3.org/2000/svg">
<g clip-path="url(#clip0_4047_14624)">
<path d="M8.2591 5.68847C7.37984 4.86182 6.21292 4.41057 5.00625 4.4306C2.06787 4.4306 0.0351562 7.12244 0.0351562 10.4206C0.0351562 13.7187 2.06787 16.4055 5.00625 16.4055C6.65406 16.4055 7.53708 15.8395 8.21381 15.0269H8.2591V16.1338H11.0264V0.0532227H8.2591V5.68847ZM5.6377 13.8772C3.5597 13.8772 2.94838 12.0684 2.92574 10.4206C2.94838 8.77025 3.55719 6.96395 5.6377 6.96395C7.71821 6.96395 8.32451 8.77025 8.34715 10.4206C8.32451 12.0684 7.7157 13.8772 5.6377 13.8772Z" fill="#222222"/>
<path d="M20.8861 12.2495C20.6144 12.6344 19.7565 13.8772 17.5879 13.8772C16.8253 13.8922 16.0874 13.6067 15.5334 13.0824C14.9794 12.5581 14.6538 11.8369 14.6269 11.0747H23.0748C23.0748 6.98658 21.4043 4.43311 17.5854 4.43311C13.8823 4.43059 11.7363 7.00922 11.7363 10.4206C11.7363 13.8319 13.8823 16.4055 17.5879 16.4055C20.7049 16.4055 22.3527 14.9137 23.2131 13.603L20.8861 12.2495ZM17.5879 6.69475C19.4395 6.69475 20.1867 8.34256 20.1867 8.95892H14.6269C14.7829 8.29753 15.1631 7.71058 15.7029 7.29781C16.2427 6.88505 16.9088 6.67196 17.5879 6.69475Z" fill="#222222"/>
</g>
<g clip-path="url(#clip1_4047_14624)">
<path d="M12.1943 21.0232H17.6522L11.5586 27.9828V30.1203H21.3145V27.7092H15.2867L21.3145 20.7494V18.6118H12.1943V21.0232Z" fill="#222222"/>
<path d="M27.5434 27.8465C26.7763 27.8616 26.034 27.5745 25.4768 27.0471C24.9196 26.5197 24.592 25.7943 24.5649 25.0276H33.0697C33.0697 20.912 31.388 18.3413 27.5434 18.3413C23.8127 18.3413 21.6523 20.9348 21.6523 24.3666C21.6523 27.7984 23.8127 30.3918 27.5434 30.3918C30.6814 30.3918 32.3403 28.8899 33.2065 27.5704L30.8637 26.2053C30.5902 26.5953 29.7265 27.8465 27.5434 27.8465ZM27.5434 20.6131C29.4074 20.6131 30.1596 22.2746 30.1596 22.8925H24.5649C24.7219 22.2271 25.1043 21.6366 25.6472 21.2211C26.1901 20.8056 26.8601 20.5908 27.5434 20.6131Z" fill="#222222"/>
<path d="M39.9242 27.8465C39.1573 27.8609 38.4154 27.5736 37.8584 27.0463C37.3013 26.5191 36.9735 25.7941 36.9458 25.0276H45.4505C45.4505 20.912 43.7663 18.3413 39.9242 18.3413C36.1936 18.3413 34.0332 20.9348 34.0332 24.3666C34.0332 27.7984 36.2037 30.3918 39.9242 30.3918C43.0622 30.3918 44.7211 28.8899 45.5873 27.5704L43.2446 26.2053C42.9812 26.5953 42.115 27.8465 39.9242 27.8465ZM39.9242 20.6131C41.7883 20.6131 42.538 22.2746 42.538 22.8925H36.9534C37.1101 22.2285 37.4914 21.6389 38.0327 21.2235C38.574 20.8082 39.2422 20.5926 39.9242 20.6131Z" fill="#222222"/>
<path d="M52.4869 18.3383C51.8919 18.3256 51.3016 18.4457 50.7588 18.6897C50.216 18.9337 49.7344 19.2956 49.3489 19.749H49.2957V18.6118H46.5098V30.1178H49.2957V24.0394C49.2957 21.9246 50.4101 21.0154 51.7524 21.0154C53.1859 21.0154 53.6621 22.0284 53.6621 23.0846V30.1128H56.448V22.2513C56.443 19.7262 55.2146 18.3383 52.4869 18.3383Z" fill="#222222"/>
</g>
<defs>
<clipPath id="clip0_4047_14624">
<rect width="23.2486" height="16.499" fill="white"/>
</clipPath>
<clipPath id="clip1_4047_14624">
<rect width="44.9974" height="12.2493" fill="white" transform="translate(11.5 18.249)"/>
</clipPath>
</defs>
</svg>
