<svg width="53" height="53" viewBox="0 0 53 53" fill="none" xmlns="http://www.w3.org/2000/svg">
<path d="M0 0H0.15C0.319296 0.0937357 1.0868 0.29445 1.30355 0.356279L3.60481 1.01541L13.1823 3.75896L52.8 15.1083V52.8H0V0Z" fill="#333333"/>
<path d="M18.2982 19.3979C23.6677 18.8506 24.8866 26.3951 22.3029 29.774C21.5047 30.8179 20.542 31.3015 19.2664 31.4766C16.0158 31.7207 14.2581 29.4004 13.9441 26.3727C13.6277 23.322 14.796 19.7456 18.2982 19.3979Z" fill="white"/>
<path d="M18.6553 21.5893C20.3642 21.4788 20.9542 23.3029 21.0253 24.6907C21.1116 26.3731 21.0337 29.1118 18.8321 29.2761C18.3561 29.3088 17.8851 29.1624 17.5117 28.8654C16.8273 28.31 16.549 27.2394 16.4715 26.395C16.3535 25.1102 16.4014 23.3017 17.2399 22.2677C17.6154 21.8046 18.0866 21.6434 18.6553 21.5893Z" fill="#333333"/>
<path d="M7.66885 19.3974C8.14683 19.3574 8.62783 19.3722 9.10247 19.4414C11.2782 19.7593 12.9927 21.3824 12.6184 23.6815C12.2513 25.9362 9.68224 27.8172 7.95866 29.0931C9.54405 29.0668 11.1711 29.1261 12.7549 29.0846C12.725 29.6974 12.7328 30.6776 12.7531 31.2915C12.0147 31.2577 11.113 31.2814 10.3667 31.2814L5.99299 31.2817C5.30218 31.2783 4.61135 31.2801 3.92057 31.2874C3.92755 30.6431 3.91812 29.9803 3.91683 29.3342C4.79483 28.6886 5.66577 28.0333 6.52955 27.3686C7.20004 26.8496 7.94494 26.2623 8.55902 25.6849C9.25816 25.0085 10.1 24.2214 10.1321 23.1791C10.1589 22.0785 9.12982 21.5697 8.16586 21.5881C6.90415 21.6121 5.96259 22.0685 5.08188 22.944C4.59851 22.4019 4.13316 21.8308 3.64648 21.2931C4.71586 20.0914 6.09349 19.5409 7.66885 19.3974Z" fill="white"/>
<path d="M28.427 19.3981C31.0343 19.1226 33.8362 20.7311 33.3822 23.6649C33.0318 25.9293 30.4617 27.8123 28.7196 29.0952C30.2828 29.0478 31.9431 29.1313 33.5188 29.0864C33.5144 29.8222 33.5139 30.5578 33.517 31.2936C32.7132 31.266 31.8405 31.282 31.033 31.282L26.6979 31.2822L24.6815 31.283C24.688 30.7393 24.7131 29.8612 24.6731 29.337C25.1403 29.0308 25.8729 28.4489 26.3382 28.1003C27.3223 27.363 28.3989 26.53 29.301 25.708C30.0118 25.0285 30.8564 24.2432 30.8927 23.1917C30.9304 22.1057 29.9618 21.5864 28.9981 21.5888C27.7121 21.5921 26.7433 22.0567 25.8301 22.9501C25.7293 22.7956 25.4579 22.4973 25.3296 22.3482C25.0247 21.9905 24.7163 21.6358 24.4043 21.2842C25.5751 20.0931 26.7567 19.5458 28.427 19.3981Z" fill="white"/>
<path d="M3.90527 4.88927C4.51773 4.88577 5.13021 4.88672 5.74265 4.89214C5.74726 5.50091 5.74352 6.10971 5.73141 6.71835C6.1824 6.81207 6.99355 7.07529 7.46169 7.20941L10.96 8.2115L10.9578 12.7116L8.33325 12.7122C8.33828 11.872 8.31634 10.9343 8.34697 10.1067L6.52325 10.1068L6.52346 12.7116L3.89844 12.7125L3.90527 4.88927Z" fill="#FEFEFE"/>
<path d="M3.91992 42.6952L5.23796 42.6924C5.58761 42.6921 5.90247 42.697 6.25207 42.7228C8.49872 42.8894 9.33881 45.6023 7.84241 47.1807C7.00674 47.9079 6.34197 47.9154 5.28999 47.9134L3.92235 47.9144C3.95011 46.2092 3.92392 44.4045 3.91992 42.6952Z" fill="white"/>
<path d="M4.83448 43.4903C5.56014 43.4875 6.5043 43.3877 7.07296 43.9111C7.85821 44.634 7.82 45.8506 7.1387 46.6225C6.44405 47.2286 5.72914 47.1059 4.83737 47.1036C4.8136 45.9254 4.82806 44.6721 4.83448 43.4903Z" fill="#333333"/>
<path d="M3.92188 34.8638C4.69954 34.904 6.5816 34.7349 7.21151 35.0172C7.54061 35.1647 7.78414 35.4217 7.90157 35.7641C8.02153 36.1137 7.9949 36.4671 7.83189 36.7971C7.67428 37.116 7.43045 37.2743 7.10436 37.3852C7.94117 37.6701 8.21432 38.3801 7.98789 39.1963C7.60671 40.2379 6.49884 40.0938 5.60975 40.0912L3.92267 40.0891L3.92188 34.8638Z" fill="white"/>
<path d="M4.83103 37.8293C5.44189 37.8259 6.95349 37.6166 7.1088 38.3738C7.16841 38.6644 7.11042 38.8683 6.91905 39.09C6.66366 39.2877 6.41701 39.2779 6.10905 39.2798C5.68467 39.2823 5.26005 39.2805 4.83567 39.2798C4.82752 38.7964 4.82597 38.3127 4.83103 37.8293Z" fill="#333333"/>
<path d="M4.82939 35.6792C5.42911 35.6836 6.86763 35.4508 7.01724 36.1923C7.07019 36.4547 7.00298 36.6581 6.82718 36.8541C6.47746 37.1289 5.33058 37.0364 4.83573 37.0317C4.82859 36.5811 4.82648 36.1301 4.82939 35.6792Z" fill="#333333"/>
<path d="M20.0642 44.0445C20.6471 44.0125 20.9995 44.2404 21.3737 44.6485L21.354 44.1417L22.1941 44.136C22.1699 44.4588 22.1805 44.8739 22.1806 45.2049L22.1835 46.9358C22.1878 48.105 22.2498 49.1432 20.7531 49.4044C19.9126 49.5511 19.347 49.3863 18.6585 48.8993L18.9618 48.4322L19.0103 48.3303C19.0229 48.3224 19.0356 48.3144 19.0483 48.3064C19.1201 48.359 19.3396 48.5361 19.3984 48.5766C19.5564 48.6859 19.8677 48.7418 20.0524 48.7581C20.4091 48.7898 20.7851 48.7413 21.0651 48.5021C21.4244 48.195 21.3506 47.7392 21.3704 47.3058C20.3089 48.5013 18.6157 47.8369 18.4976 46.2949C18.4111 45.1654 18.8117 44.1631 20.0642 44.0445Z" fill="white"/>
<path d="M20.3072 44.7656H20.3307C20.7923 44.7692 21.0322 44.9028 21.346 45.2225C21.3825 45.4955 21.3685 46.4164 21.354 46.71C21.091 47.0305 20.8165 47.1434 20.4227 47.1971C19.1421 47.1347 18.958 45.3924 19.9713 44.8497C20.056 44.8043 20.2075 44.7816 20.3072 44.7656Z" fill="#333333"/>
<path d="M35.2766 36.2404C36.3602 36.0875 37.3621 36.8429 37.5132 37.9267C37.664 39.0106 36.9068 40.0111 35.8227 40.1601C34.7414 40.3086 33.7439 39.5538 33.5934 38.4728C33.4428 37.3918 34.1959 36.393 35.2766 36.2404Z" fill="white"/>
<path d="M35.3638 36.9528C36.9679 36.8379 37.0494 39.1675 35.7214 39.4449C34.1841 39.5627 34.0147 37.2911 35.3638 36.9528Z" fill="#333333"/>
<path d="M21.6662 36.2403C22.7445 36.0884 23.7426 36.8363 23.8998 37.914C24.057 38.9914 23.3142 39.9933 22.2376 40.1559C21.1531 40.3199 20.1422 39.5704 19.9839 38.4853C19.8255 37.3999 20.5802 36.3929 21.6662 36.2403Z" fill="white"/>
<path d="M21.7513 36.9529C23.3517 36.8379 23.4401 39.1644 22.1087 39.4449C20.5755 39.5709 20.397 37.288 21.7513 36.9529Z" fill="#333333"/>
<path d="M28.4883 34.8665C28.7964 34.8711 29.1047 34.8698 29.4128 34.8618C29.3764 35.4917 29.3958 36.3713 29.4035 37.0138C30.2865 37.0058 31.2257 36.9944 32.1075 37.0107C32.1129 36.2955 32.1131 35.5801 32.1085 34.8649C32.4032 34.8768 32.7324 34.8675 33.0284 34.8628C33.0245 35.3432 33.0678 39.9946 32.9956 40.0908L32.1044 40.0905C32.1242 39.3462 32.1116 38.5612 32.1152 37.812C31.2515 37.7841 30.2736 37.8045 29.3994 37.8032C29.4035 38.5666 29.403 39.3297 29.3976 40.0931C29.1001 40.0869 28.7881 40.0905 28.4893 40.0897L28.4883 34.8665Z" fill="white"/>
<path d="M10.1482 36.2307C11.6017 36.0881 12.2322 37.1477 12.2367 38.4638L9.29452 38.4664C9.60212 39.5835 10.5463 39.7715 11.447 39.2184L11.6019 39.0921C11.7267 39.2909 11.8515 39.4649 11.9878 39.6549C11.1578 40.2358 10.1338 40.4224 9.24706 39.823C8.33935 39.2094 8.23264 37.7992 8.85967 36.9541C9.18021 36.5222 9.62259 36.3088 10.1482 36.2307Z" fill="white"/>
<path d="M10.1744 36.8988C10.9632 36.8529 11.2807 37.1337 11.4603 37.8777L10.5641 37.8824L9.30469 37.8765C9.41134 37.3263 9.63379 37.0489 10.1744 36.8988Z" fill="#333333"/>
<path d="M10.8109 44.0439L10.8357 44.0431C11.8404 44.0199 12.5204 44.6325 12.7118 45.6122C12.7574 45.8457 12.7588 46.0541 12.7635 46.2918C11.8646 46.2662 10.7193 46.2735 9.82042 46.2956C10.127 47.4769 11.1524 47.5674 12.0516 46.9819L12.0993 46.9407C12.1883 46.9675 12.4274 47.3679 12.4945 47.4707C12.1428 47.7592 11.7143 47.9389 11.2619 47.9874C8.433 48.3037 8.17508 44.2586 10.8109 44.0439Z" fill="white"/>
<path d="M10.8057 44.7134C11.54 44.6809 11.8271 45.0534 11.9789 45.7088L11.0236 45.7096L9.81836 45.7049C9.94077 45.13 10.2021 44.7889 10.8057 44.7134Z" fill="#333333"/>
<path d="M25.1046 44.0442C25.6299 43.9937 26.1936 44.2316 26.3238 44.7849C26.4269 45.2232 26.3882 45.736 26.3864 46.1884L26.3921 47.9197C26.1216 47.9158 25.8419 47.9078 25.5724 47.9168C25.5639 47.3597 25.6567 45.4318 25.4598 45.0618C25.3872 44.9254 25.2616 44.8401 25.1147 44.7999C24.7587 44.7024 24.4148 44.8197 24.1114 45.0022C23.9828 45.1056 23.9497 45.1373 23.8385 45.2595C23.7969 46.0126 23.8343 47.1405 23.8302 47.9212C23.5811 47.9078 23.2767 47.9135 23.0234 47.9117L23.0215 44.1393L23.8472 44.137C23.8326 44.2793 23.8326 44.4892 23.8287 44.6367C24.2534 44.2579 24.538 44.095 25.1046 44.0442Z" fill="white"/>
<path d="M40.6033 36.3071C40.8854 36.3146 41.1439 36.3099 41.4252 36.3032C41.403 36.6701 41.4167 37.1672 41.4159 37.5438L41.4144 40.0907L40.6061 40.0874C40.6051 39.9031 40.6092 39.7633 40.6221 39.5795C40.2774 39.9216 39.8502 40.1575 39.3568 40.1805C38.8651 40.2104 38.2474 40.0137 38.1242 39.4751C38.0229 39.0327 38.053 38.5109 38.053 38.0545L38.0543 36.3079C38.3294 36.3141 38.6045 36.3128 38.8796 36.3043C38.8672 36.9777 38.8819 37.6511 38.8731 38.3291C38.8651 38.9306 38.8597 39.4594 39.6381 39.455C40.0516 39.4527 40.3329 39.2485 40.6061 38.961L40.6033 36.3071Z" fill="white"/>
<path d="M13.9642 36.2317C14.6077 36.1397 15.1802 36.3606 15.6821 36.7466L15.324 37.3318C14.9377 36.9131 14.0707 36.662 13.6114 37.0897C13.5626 37.1351 13.4534 37.2648 13.478 37.3259C13.6692 37.7415 14.4277 37.7863 14.8844 37.9315C15.7247 38.1988 16.1076 38.9514 15.5293 39.7029C15.2581 40.0554 14.7581 40.151 14.302 40.1796C13.6517 40.1861 13.0795 40.0404 12.5996 39.5892C12.725 39.3946 12.8513 39.2079 12.9533 38.9999C13.4224 39.377 14.3902 39.8411 14.9063 39.2845C15.4807 38.665 13.9416 38.5193 13.6246 38.3907C13.4402 38.3159 13.2441 38.2664 13.0861 38.1287C12.5518 37.7513 12.6288 36.9405 13.1071 36.5548C13.3597 36.3514 13.6489 36.2694 13.9642 36.2317Z" fill="white"/>
<path d="M14.6491 44.0446C15.2497 44.0098 15.7545 44.2011 16.2118 44.579C16.0893 44.7605 15.9695 44.9585 15.8525 45.1449C15.4831 44.7574 14.6155 44.4828 14.1587 44.8884C14.063 44.9735 14.0025 45.0328 13.9948 45.1648C14.1751 45.6701 15.4429 45.529 16.0263 46.0937C16.2135 46.2723 16.3201 46.5193 16.3218 46.7782C16.3371 47.7617 15.4053 48.0066 14.6158 48.0033C14.012 47.9558 13.587 47.8169 13.123 47.4284C13.2311 47.2353 13.3787 47.013 13.495 46.816C13.8536 47.1649 14.4095 47.3773 14.9098 47.3587C15.0439 47.3538 15.3651 47.2314 15.4362 47.1174C15.8595 46.4695 14.6775 46.3566 14.2433 46.2396C13.3664 46.0032 12.9128 45.3705 13.484 44.5228C13.7079 44.1902 14.2396 44.0752 14.6491 44.0446Z" fill="white"/>
<path d="M45.916 36.3093C46.7866 36.3405 48.0058 36.3247 48.8855 36.3057C48.8873 36.497 48.9131 36.7293 48.845 36.9092C48.7316 37.209 47.2997 38.9823 46.9986 39.3912C47.525 39.346 48.3567 39.3883 48.9317 39.3705C48.9208 39.5938 48.9141 39.8171 48.9121 40.0406L48.8834 40.0878C47.9306 40.1125 46.8774 40.0896 45.9168 40.0891C45.9155 39.8849 45.916 39.6809 45.9178 39.4768C46.5263 38.6747 47.1674 37.8128 47.7952 37.0311C47.169 37.0368 46.5425 37.036 45.916 37.0291V36.3093Z" fill="white"/>
<path d="M42.2051 36.3101C42.3476 36.3152 42.5005 36.3134 42.6436 36.3119C43.4854 36.3029 44.3341 36.3279 45.1753 36.3052C45.1761 36.4521 45.1895 36.8061 45.131 36.9146C44.9655 37.2217 44.6644 37.5728 44.4478 37.8541C44.0554 38.3625 43.6656 38.8732 43.2791 39.3863C43.8984 39.3646 44.5733 39.3811 45.2003 39.3742L45.1954 40.0832C45.09 40.1015 44.4401 40.0924 44.2903 40.0924L42.2061 40.0893C42.2046 39.8828 42.2053 39.6761 42.2084 39.4693C42.2899 39.3512 42.3858 39.2288 42.475 39.1153C43.0159 38.428 43.5282 37.7103 44.0776 37.0304C43.4537 37.0371 42.8295 37.0369 42.2056 37.0296L42.2051 36.3101Z" fill="white"/>
<path d="M25.9237 34.7883C26.3037 34.7728 26.5607 34.9082 26.867 35.1003C26.7548 35.273 26.6561 35.4434 26.5525 35.6216C26.3145 35.4816 25.976 35.3568 25.7476 35.5973C25.5553 35.7997 25.5671 36.0498 25.5682 36.3099C25.8314 36.3159 26.0773 36.3112 26.3398 36.305C26.3354 36.5492 26.3282 36.7938 26.3364 37.038C26.0969 37.0274 25.8141 37.0297 25.5734 37.0272C25.5595 37.9009 25.5724 38.8074 25.573 39.6837L25.5726 40.0931L24.7511 40.0889L24.7484 37.0295L24.1332 37.0388L24.1309 36.3063C24.3304 36.3153 24.5399 36.3122 24.7454 36.3208C24.7465 35.4615 24.9675 34.8804 25.9237 34.7883Z" fill="white"/>
<path d="M16.7068 35.2773C16.982 35.283 17.2572 35.2817 17.5324 35.2734C17.5284 35.6205 17.5275 35.9677 17.5295 36.3147C17.7849 36.314 18.0403 36.3106 18.2956 36.3047C18.2915 36.5499 18.2857 36.793 18.2927 37.0382C18.0534 37.0276 17.7706 37.0302 17.53 37.0273C17.527 37.4674 17.4575 38.9707 17.5967 39.2734C17.6339 39.3541 17.698 39.4147 17.7829 39.4425C17.9537 39.4987 18.1228 39.4064 18.2679 39.3257C18.3112 39.4995 18.378 39.6965 18.4323 39.8697C18.408 40.1337 17.9307 40.1708 17.7145 40.1778C16.5807 40.2139 16.7027 39.2458 16.7048 38.451L16.7048 37.0289C16.5119 37.0376 16.2767 37.0315 16.0806 37.0312L16.0781 36.306C16.2812 36.3181 16.502 36.314 16.7069 36.314L16.7068 35.2773Z" fill="white"/>
<path d="M16.9919 44.1396L17.8135 44.1353C17.792 44.5684 17.8027 45.0794 17.8026 45.5166L17.8057 47.9168C17.5356 47.9119 17.2653 47.9125 16.9952 47.9179C16.9814 46.6662 16.9927 45.3929 16.9919 44.1396Z" fill="white"/>
<path d="M17.3271 42.656C17.5992 42.6192 17.8513 42.8053 17.8965 43.076C17.9417 43.347 17.7636 43.6048 17.4943 43.6584C17.3125 43.6945 17.1254 43.629 17.0061 43.4869C16.8867 43.3452 16.8541 43.1495 16.9209 42.9767C16.9877 42.8037 17.1433 42.6808 17.3271 42.656Z" fill="white"/>
<path d="M38.3557 19.4058C43.3254 18.8114 45.5639 23.5489 41.098 25.1105C42.4509 25.5269 43.734 26.3742 43.6393 27.9936C43.4957 30.4519 40.9029 31.4044 38.7635 31.2674C37.0073 31.1547 35.7399 30.7459 34.5234 29.4234C34.9613 28.8834 35.3581 28.3302 35.815 27.7993C37.0282 28.9214 39.2654 29.7311 40.7606 28.521C41.2168 28.1515 41.3923 27.2867 40.9003 26.8559C40.044 26.1056 38.4953 26.2943 37.4244 26.3146L37.425 24.1385C38.3145 24.1431 40.0212 24.2538 40.6438 23.6919C41.7552 22.6896 40.2411 21.5738 39.1714 21.5514C37.7017 21.5205 36.9741 21.8324 35.9037 22.7366L34.6912 21.1812C35.7106 20.0831 36.8807 19.5626 38.3557 19.4058Z" fill="white"/>
</svg>
