<svg width="53" height="53" viewBox="0 0 53 53" fill="none" xmlns="http://www.w3.org/2000/svg">
<path d="M0 0H0.15C0.319296 0.0937357 1.0868 0.29445 1.30355 0.356279L3.60481 1.01541L13.1823 3.75896L52.8 15.1083V52.8H0V0Z" fill="#333333"/>
<path d="M3.90722 4.88927C4.51968 4.88577 5.13217 4.88672 5.7446 4.89214C5.74922 5.50091 5.74548 6.10971 5.73336 6.71835C6.18435 6.81207 6.99551 7.07529 7.46364 7.20941L10.962 8.2115L10.9597 12.7116L8.3352 12.7122C8.34023 11.872 8.31829 10.9343 8.34892 10.1067L6.52521 10.1068L6.52541 12.7116L3.90039 12.7125L3.90722 4.88927Z" fill="#FEFEFE"/>
<path d="M3.91992 42.6952L5.23796 42.6924C5.58761 42.6921 5.90247 42.697 6.25207 42.7228C8.49872 42.8894 9.33881 45.6023 7.84241 47.1807C7.00674 47.9079 6.34197 47.9154 5.28999 47.9134L3.92235 47.9144C3.95011 46.2092 3.92392 44.4045 3.91992 42.6952Z" fill="white"/>
<path d="M4.83448 43.4903C5.56014 43.4875 6.5043 43.3877 7.07296 43.9111C7.85821 44.634 7.82 45.8506 7.1387 46.6225C6.44405 47.2286 5.72914 47.1059 4.83737 47.1036C4.8136 45.9254 4.82806 44.6721 4.83448 43.4903Z" fill="#333333"/>
<path d="M3.92188 34.8638C4.69954 34.904 6.5816 34.7349 7.21151 35.0172C7.54061 35.1647 7.78414 35.4217 7.90157 35.7641C8.02153 36.1137 7.9949 36.4671 7.83189 36.7971C7.67428 37.116 7.43045 37.2743 7.10436 37.3852C7.94117 37.6701 8.21432 38.3801 7.98789 39.1963C7.60671 40.2379 6.49884 40.0938 5.60975 40.0912L3.92267 40.0891L3.92188 34.8638Z" fill="white"/>
<path d="M4.83298 37.8293C5.44384 37.8259 6.95545 37.6166 7.11075 38.3738C7.17036 38.6644 7.11238 38.8683 6.921 39.09C6.66561 39.2877 6.41896 39.2779 6.11101 39.2798C5.68662 39.2823 5.26201 39.2805 4.83762 39.2798C4.82947 38.7964 4.82793 38.3127 4.83298 37.8293Z" fill="#333333"/>
<path d="M4.83134 35.6792C5.43107 35.6836 6.86958 35.4508 7.01919 36.1923C7.07215 36.4547 7.00494 36.6581 6.82913 36.8541C6.47941 37.1289 5.33253 37.0364 4.83769 37.0317C4.83055 36.5811 4.82843 36.1301 4.83134 35.6792Z" fill="#333333"/>
<path d="M20.0662 44.0445C20.649 44.0125 21.0014 44.2404 21.3756 44.6485L21.3559 44.1417L22.1961 44.136C22.1719 44.4588 22.1825 44.8739 22.1825 45.2049L22.1855 46.9358C22.1897 48.105 22.2518 49.1432 20.7551 49.4044C19.9145 49.5511 19.349 49.3863 18.6605 48.8993L18.9637 48.4322L19.0122 48.3303C19.0249 48.3224 19.0376 48.3144 19.0503 48.3064C19.122 48.359 19.3416 48.5361 19.4003 48.5766C19.5583 48.6859 19.8696 48.7418 20.0543 48.7581C20.4111 48.7898 20.787 48.7413 21.0671 48.5021C21.4264 48.195 21.3525 47.7392 21.3724 47.3058C20.3109 48.5013 18.6177 47.8369 18.4996 46.2949C18.4131 45.1654 18.8136 44.1631 20.0662 44.0445Z" fill="white"/>
<path d="M20.3072 44.7656H20.3307C20.7923 44.7692 21.0322 44.9028 21.346 45.2225C21.3825 45.4955 21.3685 46.4164 21.354 46.71C21.091 47.0305 20.8165 47.1434 20.4227 47.1971C19.1421 47.1347 18.958 45.3924 19.9713 44.8497C20.056 44.8043 20.2075 44.7816 20.3072 44.7656Z" fill="#333333"/>
<path d="M35.2766 36.2404C36.3602 36.0875 37.3621 36.8429 37.5132 37.9267C37.664 39.0106 36.9068 40.0111 35.8227 40.1601C34.7414 40.3086 33.7439 39.5538 33.5934 38.4728C33.4428 37.3918 34.1959 36.393 35.2766 36.2404Z" fill="white"/>
<path d="M35.3638 36.9528C36.9679 36.8379 37.0494 39.1675 35.7214 39.4449C34.1841 39.5627 34.0147 37.2911 35.3638 36.9528Z" fill="#333333"/>
<path d="M21.6662 36.2403C22.7445 36.0884 23.7426 36.8363 23.8998 37.914C24.057 38.9914 23.3142 39.9933 22.2376 40.1559C21.1531 40.3199 20.1422 39.5704 19.9839 38.4853C19.8255 37.3999 20.5802 36.3929 21.6662 36.2403Z" fill="white"/>
<path d="M21.7513 36.9529C23.3517 36.8379 23.4401 39.1644 22.1087 39.4449C20.5755 39.5709 20.397 37.288 21.7513 36.9529Z" fill="#333333"/>
<path d="M28.4883 34.8665C28.7964 34.8711 29.1047 34.8698 29.4128 34.8618C29.3764 35.4917 29.3958 36.3713 29.4035 37.0138C30.2865 37.0058 31.2257 36.9944 32.1075 37.0107C32.1129 36.2955 32.1131 35.5801 32.1085 34.8649C32.4032 34.8768 32.7324 34.8675 33.0284 34.8628C33.0245 35.3432 33.0678 39.9946 32.9956 40.0908L32.1044 40.0905C32.1242 39.3462 32.1116 38.5612 32.1152 37.812C31.2515 37.7841 30.2736 37.8045 29.3994 37.8032C29.4035 38.5666 29.403 39.3297 29.3976 40.0931C29.1001 40.0869 28.7881 40.0905 28.4893 40.0897L28.4883 34.8665Z" fill="white"/>
<path d="M10.1521 36.2307C11.6056 36.0881 12.2361 37.1477 12.2406 38.4638L9.29843 38.4664C9.60602 39.5835 10.5502 39.7715 11.4509 39.2184L11.6058 39.0921C11.7306 39.2909 11.8554 39.4649 11.9917 39.6549C11.1617 40.2358 10.1377 40.4224 9.25096 39.823C8.34326 39.2094 8.23655 37.7992 8.86358 36.9541C9.18411 36.5222 9.62649 36.3088 10.1521 36.2307Z" fill="white"/>
<path d="M10.1763 36.8988C10.9651 36.8529 11.2827 37.1337 11.4622 37.8777L10.5661 37.8824L9.30664 37.8765C9.4133 37.3263 9.63574 37.0489 10.1763 36.8988Z" fill="#333333"/>
<path d="M10.8167 44.0439L10.8415 44.0431C11.8462 44.0199 12.5263 44.6325 12.7176 45.6122C12.7633 45.8457 12.7646 46.0541 12.7693 46.2918C11.8705 46.2662 10.7251 46.2735 9.82628 46.2956C10.1329 47.4769 11.1583 47.5674 12.0574 46.9819L12.1052 46.9407C12.1942 46.9675 12.4332 47.3679 12.5004 47.4707C12.1486 47.7592 11.7202 47.9389 11.2677 47.9874C8.43886 48.3037 8.18094 44.2586 10.8167 44.0439Z" fill="white"/>
<path d="M10.8057 44.7134C11.54 44.6809 11.8271 45.0534 11.9789 45.7088L11.0236 45.7096L9.81836 45.7049C9.94077 45.13 10.2021 44.7889 10.8057 44.7134Z" fill="#333333"/>
<path d="M25.1066 44.0442C25.6319 43.9937 26.1955 44.2316 26.3257 44.7849C26.4288 45.2232 26.3902 45.736 26.3884 46.1884L26.394 47.9197C26.1236 47.9158 25.8439 47.9078 25.5744 47.9168C25.5658 47.3597 25.6586 45.4318 25.4617 45.0618C25.3892 44.9254 25.2636 44.8401 25.1167 44.7999C24.7607 44.7024 24.4167 44.8197 24.1134 45.0022C23.9848 45.1056 23.9516 45.1373 23.8405 45.2595C23.7988 46.0126 23.8363 47.1405 23.8322 47.9212C23.5831 47.9078 23.2787 47.9135 23.0254 47.9117L23.0234 44.1393L23.8491 44.137C23.8345 44.2793 23.8345 44.4892 23.8306 44.6367C24.2554 44.2579 24.5399 44.095 25.1066 44.0442Z" fill="white"/>
<path d="M40.6033 36.3071C40.8854 36.3146 41.1439 36.3099 41.4252 36.3032C41.403 36.6701 41.4167 37.1672 41.4159 37.5438L41.4144 40.0907L40.6061 40.0874C40.6051 39.9031 40.6092 39.7633 40.6221 39.5795C40.2774 39.9216 39.8502 40.1575 39.3568 40.1805C38.8651 40.2104 38.2474 40.0137 38.1242 39.4751C38.0229 39.0327 38.053 38.5109 38.053 38.0545L38.0543 36.3079C38.3294 36.3141 38.6045 36.3128 38.8796 36.3043C38.8672 36.9777 38.8819 37.6511 38.8731 38.3291C38.8651 38.9306 38.8597 39.4594 39.6381 39.455C40.0516 39.4527 40.3329 39.2485 40.6061 38.961L40.6033 36.3071Z" fill="white"/>
<path d="M13.9681 36.2317C14.6116 36.1397 15.1841 36.3606 15.686 36.7466L15.3279 37.3318C14.9416 36.9131 14.0746 36.662 13.6153 37.0897C13.5665 37.1351 13.4573 37.2648 13.4819 37.3259C13.6732 37.7415 14.4316 37.7863 14.8883 37.9315C15.7286 38.1988 16.1115 38.9514 15.5332 39.7029C15.2621 40.0554 14.762 40.151 14.3059 40.1796C13.6556 40.1861 13.0834 40.0404 12.6035 39.5892C12.7289 39.3946 12.8552 39.2079 12.9572 38.9999C13.4263 39.377 14.3941 39.8411 14.9102 39.2845C15.4846 38.665 13.9455 38.5193 13.6285 38.3907C13.4441 38.3159 13.248 38.2664 13.09 38.1287C12.5557 37.7513 12.6327 36.9405 13.111 36.5548C13.3636 36.3514 13.6528 36.2694 13.9681 36.2317Z" fill="white"/>
<path d="M14.6491 44.0446C15.2497 44.0098 15.7545 44.2011 16.2118 44.579C16.0893 44.7605 15.9695 44.9585 15.8525 45.1449C15.4831 44.7574 14.6155 44.4828 14.1587 44.8884C14.063 44.9735 14.0025 45.0328 13.9948 45.1648C14.1751 45.6701 15.4429 45.529 16.0263 46.0937C16.2135 46.2723 16.3201 46.5193 16.3218 46.7782C16.3371 47.7617 15.4053 48.0066 14.6158 48.0033C14.012 47.9558 13.587 47.8169 13.123 47.4284C13.2311 47.2353 13.3787 47.013 13.495 46.816C13.8536 47.1649 14.4095 47.3773 14.9098 47.3587C15.0439 47.3538 15.3651 47.2314 15.4362 47.1174C15.8595 46.4695 14.6775 46.3566 14.2433 46.2396C13.3664 46.0032 12.9128 45.3705 13.484 44.5228C13.7079 44.1902 14.2396 44.0752 14.6491 44.0446Z" fill="white"/>
<path d="M45.916 36.3093C46.7866 36.3405 48.0058 36.3247 48.8855 36.3057C48.8873 36.497 48.9131 36.7293 48.845 36.9092C48.7316 37.209 47.2997 38.9823 46.9986 39.3912C47.525 39.346 48.3567 39.3883 48.9317 39.3705C48.9208 39.5938 48.9141 39.8171 48.9121 40.0406L48.8834 40.0878C47.9306 40.1125 46.8774 40.0896 45.9168 40.0891C45.9155 39.8849 45.916 39.6809 45.9178 39.4768C46.5263 38.6747 47.1674 37.8128 47.7952 37.0311C47.169 37.0368 46.5425 37.036 45.916 37.0291V36.3093Z" fill="white"/>
<path d="M42.2051 36.3101C42.3476 36.3152 42.5005 36.3134 42.6436 36.3119C43.4854 36.3029 44.3341 36.3279 45.1753 36.3052C45.1761 36.4521 45.1895 36.8061 45.131 36.9146C44.9655 37.2217 44.6644 37.5728 44.4478 37.8541C44.0554 38.3625 43.6656 38.8732 43.2791 39.3863C43.8984 39.3646 44.5733 39.3811 45.2003 39.3742L45.1954 40.0832C45.09 40.1015 44.4401 40.0924 44.2903 40.0924L42.2061 40.0893C42.2046 39.8828 42.2053 39.6761 42.2084 39.4693C42.2899 39.3512 42.3858 39.2288 42.475 39.1153C43.0159 38.428 43.5282 37.7103 44.0776 37.0304C43.4537 37.0371 42.8295 37.0369 42.2056 37.0296L42.2051 36.3101Z" fill="white"/>
<path d="M25.9276 34.7883C26.3076 34.7728 26.5646 34.9082 26.8709 35.1003C26.7588 35.273 26.66 35.4434 26.5564 35.6216C26.3184 35.4816 25.9799 35.3568 25.7515 35.5973C25.5592 35.7997 25.571 36.0498 25.5721 36.3099C25.8353 36.3159 26.0812 36.3112 26.3437 36.305C26.3393 36.5492 26.3321 36.7938 26.3403 37.038C26.1008 37.0274 25.818 37.0297 25.5773 37.0272C25.5634 37.9009 25.5763 38.8074 25.5769 39.6837L25.5765 40.0931L24.755 40.0889L24.7523 37.0295L24.1371 37.0388L24.1348 36.3063C24.3343 36.3153 24.5438 36.3122 24.7493 36.3208C24.7504 35.4615 24.9714 34.8804 25.9276 34.7883Z" fill="white"/>
<path d="M16.7126 35.2773C16.9878 35.283 17.2631 35.2817 17.5382 35.2734C17.5343 35.6205 17.5333 35.9677 17.5354 36.3147C17.7908 36.314 18.0461 36.3106 18.3015 36.3047C18.2974 36.5499 18.2916 36.793 18.2986 37.0382C18.0592 37.0276 17.7765 37.0302 17.5358 37.0273C17.5328 37.4674 17.4634 38.9707 17.6026 39.2734C17.6398 39.3541 17.7039 39.4147 17.7888 39.4425C17.9596 39.4987 18.1286 39.4064 18.2738 39.3257C18.3171 39.4995 18.3839 39.6965 18.4381 39.8697C18.4139 40.1337 17.9365 40.1708 17.7204 40.1778C16.5866 40.2139 16.7086 39.2458 16.7106 38.451L16.7106 37.0289C16.5177 37.0376 16.2826 37.0315 16.0865 37.0312L16.084 36.306C16.287 36.3181 16.5079 36.314 16.7128 36.314L16.7126 35.2773Z" fill="white"/>
<path d="M16.9919 44.1396L17.8135 44.1353C17.792 44.5684 17.8027 45.0794 17.8026 45.5166L17.8057 47.9168C17.5356 47.9119 17.2653 47.9125 16.9952 47.9179C16.9814 46.6662 16.9927 45.3929 16.9919 44.1396Z" fill="white"/>
<path d="M17.3271 42.656C17.5992 42.6192 17.8513 42.8053 17.8965 43.076C17.9417 43.347 17.7636 43.6048 17.4943 43.6584C17.3125 43.6945 17.1254 43.629 17.0061 43.4869C16.8867 43.3452 16.8541 43.1495 16.9209 42.9767C16.9877 42.8037 17.1433 42.6808 17.3271 42.656Z" fill="white"/>
<path d="M13.4992 31H4.46319V29.002C9.37719 25.366 10.8172 24.124 10.8172 22.648C10.8172 21.604 9.86319 21.082 8.87319 21.082C7.50519 21.082 6.46119 21.622 5.65119 22.468L4.19319 20.776C5.36319 19.426 7.14519 18.814 8.81919 18.814C11.3752 18.814 13.4092 20.254 13.4092 22.648C13.4092 24.7 11.7172 26.482 8.60319 28.75H13.4992V31ZM19.9902 31.216C16.5522 31.216 15.0222 28.102 15.0222 25.006C15.0222 21.91 16.5522 18.814 19.9902 18.814C23.4102 18.814 24.9582 21.91 24.9582 25.006C24.9582 28.102 23.4102 31.216 19.9902 31.216ZM19.9902 28.948C21.7002 28.948 22.3482 27.22 22.3482 25.006C22.3482 22.792 21.7002 21.082 19.9902 21.082C18.2622 21.082 17.6142 22.792 17.6142 25.006C17.6142 27.22 18.2622 28.948 19.9902 28.948ZM31.7823 31H29.2263V22.288L27.2283 24.322L25.7703 22.792L29.5503 18.994H31.7823V31ZM37.9587 31H35.1507L39.4527 21.244H33.4047V18.994H42.4227V20.776L37.9587 31Z" fill="white"/>
</svg>
