<svg width="53" height="53" viewBox="0 0 53 53" fill="none" xmlns="http://www.w3.org/2000/svg">
<path d="M0 0H0.15C0.319296 0.0937357 1.0868 0.29445 1.30355 0.356279L3.60481 1.01541L13.1823 3.75896L52.8 15.1083V52.8H0V0Z" fill="#333333"/>
<path d="M39.5418 19.3703C40.0001 19.337 40.5057 19.3657 41 19.3741C41.48 19.4026 42.2767 19.2734 42.709 19.4477C42.8331 19.4978 42.7748 21.3849 42.7743 21.5583L42.7784 24.9414C42.7771 25.2722 42.701 26.1104 42.8146 26.3827C42.9826 26.7864 43.7127 26.4751 44.0497 26.6362C44.163 26.6904 44.2351 26.7908 44.2758 26.9072C44.3664 27.1642 44.3767 28.3726 44.2431 28.5984C44.0397 28.9424 43.2956 28.7308 42.9562 28.8603C42.5461 29.0173 42.9746 30.7296 42.7405 31.1354C42.6933 31.2172 42.6321 31.2277 42.5443 31.244C42.3028 31.2894 40.4642 31.3103 40.3178 31.1942C40.1937 31.0959 40.2443 30.4832 40.2464 30.3226C40.2389 28.6701 40.5757 28.8049 38.8261 28.8113L36.3573 28.8219C35.909 28.825 35.4581 28.8345 35.0108 28.8203C34.7765 28.8059 34.5925 28.745 34.5589 28.4866C34.3641 26.9869 34.999 26.0408 35.7833 24.8634C36.0664 24.4378 36.3449 24.0091 36.619 23.5776C37.1741 22.7057 37.7241 21.8305 38.2687 20.9519C38.4991 20.5819 38.7231 20.2049 38.9562 19.8378C39.1113 19.5936 39.2566 19.4288 39.5418 19.3703Z" fill="#FEFEFE"/>
<path d="M40.1877 21.7544L40.214 21.7761C40.3291 22.0648 40.2055 24.1073 40.2483 24.5677C40.293 25.0496 40.2181 25.8564 40.2367 26.3607C40.2388 26.4175 40.2225 26.4826 40.1825 26.5259C39.9257 26.6008 37.532 26.5659 37.1162 26.5623L37.087 26.5553L37.0801 26.5171C37.8314 25.3679 38.577 24.2148 39.3164 23.0578C39.5053 22.7683 39.9804 21.9776 40.1877 21.7544Z" fill="#333333"/>
<path d="M18.2963 19.3979C23.6657 18.8506 24.8846 26.3951 22.301 29.774C21.5027 30.8179 20.5401 31.3015 19.2645 31.4766C16.0139 31.7207 14.2562 29.4004 13.9422 26.3727C13.6258 23.322 14.7941 19.7456 18.2963 19.3979Z" fill="white"/>
<path d="M18.6533 21.5893C20.3622 21.4788 20.9522 23.3029 21.0234 24.6907C21.1096 26.3731 21.0317 29.1118 18.8301 29.2761C18.3542 29.3088 17.8832 29.1624 17.5098 28.8654C16.8253 28.31 16.547 27.2394 16.4695 26.395C16.3516 25.1102 16.3994 23.3017 17.2379 22.2677C17.6134 21.8046 18.0847 21.6434 18.6533 21.5893Z" fill="#333333"/>
<path d="M7.6708 19.3974C8.14879 19.3574 8.62979 19.3722 9.10442 19.4414C11.2802 19.7593 12.9946 21.3824 12.6203 23.6815C12.2532 25.9362 9.68419 27.8172 7.96061 29.0931C9.546 29.0668 11.1731 29.1261 12.7569 29.0846C12.7269 29.6974 12.7348 30.6776 12.7551 31.2915C12.0166 31.2577 11.115 31.2814 10.3687 31.2814L5.99494 31.2817C5.30414 31.2783 4.6133 31.2801 3.92252 31.2874C3.9295 30.6431 3.92007 29.9803 3.91878 29.3342C4.79679 28.6886 5.66773 28.0333 6.5315 27.3686C7.202 26.8496 7.94689 26.2623 8.56098 25.6849C9.26011 25.0085 10.1019 24.2214 10.134 23.1791C10.1609 22.0785 9.13177 21.5697 8.16781 21.5881C6.9061 21.6121 5.96455 22.0685 5.08383 22.944C4.60046 22.4019 4.13511 21.8308 3.64844 21.2931C4.71782 20.0914 6.09544 19.5409 7.6708 19.3974Z" fill="white"/>
<path d="M28.4251 19.3981C31.0323 19.1226 33.8342 20.7311 33.3802 23.6649C33.0299 25.9293 30.4597 27.8123 28.7177 29.0952C30.2808 29.0478 31.9411 29.1313 33.5169 29.0864C33.5125 29.8222 33.512 30.5578 33.5151 31.2936C32.7112 31.266 31.8385 31.282 31.031 31.282L26.6959 31.2822L24.6796 31.283C24.686 30.7393 24.7111 29.8612 24.6711 29.337C25.1384 29.0308 25.8709 28.4489 26.3363 28.1003C27.3203 27.363 28.397 26.53 29.2991 25.708C30.0098 25.0285 30.8544 24.2432 30.8908 23.1917C30.9284 22.1057 29.9598 21.5864 28.9961 21.5888C27.7102 21.5921 26.7413 22.0567 25.8281 22.9501C25.7274 22.7956 25.456 22.4973 25.3277 22.3482C25.0227 21.9905 24.7143 21.6358 24.4023 21.2842C25.5731 20.0931 26.7547 19.5458 28.4251 19.3981Z" fill="white"/>
<path d="M3.90527 4.88927C4.51773 4.88577 5.13021 4.88672 5.74265 4.89214C5.74726 5.50091 5.74352 6.10971 5.73141 6.71835C6.1824 6.81207 6.99355 7.07529 7.46169 7.20941L10.96 8.2115L10.9578 12.7116L8.33325 12.7122C8.33828 11.872 8.31634 10.9343 8.34697 10.1067L6.52325 10.1068L6.52346 12.7116L3.89844 12.7125L3.90527 4.88927Z" fill="#FEFEFE"/>
<path d="M3.91797 42.6952L5.23601 42.6924C5.58565 42.6921 5.90052 42.697 6.25011 42.7228C8.49677 42.8894 9.33685 45.6023 7.84046 47.1807C7.00478 47.9079 6.34001 47.9154 5.28804 47.9134L3.92039 47.9144C3.94816 46.2092 3.92196 44.4045 3.91797 42.6952Z" fill="white"/>
<path d="M4.83253 43.4903C5.55819 43.4875 6.50235 43.3877 7.07101 43.9111C7.85625 44.634 7.81805 45.8506 7.13675 46.6225C6.4421 47.2286 5.72719 47.1059 4.83541 47.1036C4.81164 45.9254 4.82611 44.6721 4.83253 43.4903Z" fill="#333333"/>
<path d="M3.92188 34.8638C4.69954 34.904 6.5816 34.7349 7.21151 35.0172C7.54061 35.1647 7.78414 35.4217 7.90157 35.7641C8.02153 36.1137 7.9949 36.4671 7.83189 36.7971C7.67428 37.116 7.43045 37.2743 7.10436 37.3852C7.94117 37.6701 8.21432 38.3801 7.98789 39.1963C7.60671 40.2379 6.49884 40.0938 5.60975 40.0912L3.92267 40.0891L3.92188 34.8638Z" fill="white"/>
<path d="M4.83298 37.8293C5.44384 37.8259 6.95545 37.6166 7.11075 38.3738C7.17036 38.6644 7.11238 38.8683 6.921 39.09C6.66561 39.2877 6.41896 39.2779 6.11101 39.2798C5.68662 39.2823 5.26201 39.2805 4.83762 39.2798C4.82947 38.7964 4.82793 38.3127 4.83298 37.8293Z" fill="#333333"/>
<path d="M4.83134 35.6792C5.43107 35.6836 6.86958 35.4508 7.01919 36.1923C7.07215 36.4547 7.00494 36.6581 6.82913 36.8541C6.47941 37.1289 5.33253 37.0364 4.83769 37.0317C4.83055 36.5811 4.82843 36.1301 4.83134 35.6792Z" fill="#333333"/>
<path d="M20.0623 44.0445C20.6451 44.0125 20.9975 44.2404 21.3717 44.6485L21.352 44.1417L22.1922 44.136C22.168 44.4588 22.1786 44.8739 22.1786 45.2049L22.1816 46.9358C22.1858 48.105 22.2479 49.1432 20.7512 49.4044C19.9106 49.5511 19.3451 49.3863 18.6566 48.8993L18.9598 48.4322L19.0083 48.3303C19.021 48.3224 19.0337 48.3144 19.0464 48.3064C19.1181 48.359 19.3377 48.5361 19.3964 48.5766C19.5544 48.6859 19.8657 48.7418 20.0504 48.7581C20.4072 48.7898 20.7831 48.7413 21.0632 48.5021C21.4225 48.195 21.3486 47.7392 21.3685 47.3058C20.307 48.5013 18.6138 47.8369 18.4957 46.2949C18.4092 45.1654 18.8097 44.1631 20.0623 44.0445Z" fill="white"/>
<path d="M20.3052 44.7656H20.3287C20.7903 44.7692 21.0303 44.9028 21.3441 45.2225C21.3805 45.4955 21.3665 46.4164 21.3521 46.71C21.0891 47.0305 20.8145 47.1434 20.4207 47.1971C19.1401 47.1347 18.9561 45.3924 19.9693 44.8497C20.054 44.8043 20.2056 44.7816 20.3052 44.7656Z" fill="#333333"/>
<path d="M35.2766 36.2404C36.3602 36.0875 37.3621 36.8429 37.5132 37.9267C37.664 39.0106 36.9068 40.0111 35.8227 40.1601C34.7414 40.3086 33.7439 39.5538 33.5934 38.4728C33.4428 37.3918 34.1959 36.393 35.2766 36.2404Z" fill="white"/>
<path d="M35.3619 36.9528C36.966 36.8379 37.0474 39.1675 35.7194 39.4449C34.1821 39.5627 34.0127 37.2911 35.3619 36.9528Z" fill="#333333"/>
<path d="M21.6643 36.2403C22.7425 36.0884 23.7407 36.8363 23.8979 37.914C24.0551 38.9914 23.3123 39.9933 22.2357 40.1559C21.1512 40.3199 20.1403 39.5704 19.9819 38.4853C19.8236 37.3999 20.5782 36.3929 21.6643 36.2403Z" fill="white"/>
<path d="M21.7513 36.9529C23.3517 36.8379 23.4401 39.1644 22.1087 39.4449C20.5755 39.5709 20.397 37.288 21.7513 36.9529Z" fill="#333333"/>
<path d="M28.4844 34.8665C28.7925 34.8711 29.1008 34.8698 29.4089 34.8618C29.3725 35.4917 29.3919 36.3713 29.3996 37.0138C30.2826 37.0058 31.2218 36.9944 32.1035 37.0107C32.109 36.2955 32.1092 35.5801 32.1046 34.8649C32.3993 34.8768 32.7285 34.8675 33.0245 34.8628C33.0206 35.3432 33.0639 39.9946 32.9917 40.0908L32.1005 40.0905C32.1203 39.3462 32.1077 38.5612 32.1113 37.812C31.2476 37.7841 30.2697 37.8045 29.3955 37.8032C29.3996 38.5666 29.3991 39.3297 29.3937 40.0931C29.0962 40.0869 28.7842 40.0905 28.4854 40.0897L28.4844 34.8665Z" fill="white"/>
<path d="M10.1482 36.2307C11.6017 36.0881 12.2322 37.1477 12.2367 38.4638L9.29452 38.4664C9.60212 39.5835 10.5463 39.7715 11.447 39.2184L11.6019 39.0921C11.7267 39.2909 11.8515 39.4649 11.9878 39.6549C11.1578 40.2358 10.1338 40.4224 9.24706 39.823C8.33935 39.2094 8.23264 37.7992 8.85967 36.9541C9.18021 36.5222 9.62259 36.3088 10.1482 36.2307Z" fill="white"/>
<path d="M10.1744 36.8988C10.9632 36.8529 11.2807 37.1337 11.4603 37.8777L10.5641 37.8824L9.30469 37.8765C9.41134 37.3263 9.63379 37.0489 10.1744 36.8988Z" fill="#333333"/>
<path d="M10.8128 44.0439L10.8376 44.0431C11.8423 44.0199 12.5224 44.6325 12.7137 45.6122C12.7593 45.8457 12.7607 46.0541 12.7654 46.2918C11.8666 46.2662 10.7212 46.2735 9.82237 46.2956C10.129 47.4769 11.1544 47.5674 12.0535 46.9819L12.1013 46.9407C12.1903 46.9675 12.4293 47.3679 12.4965 47.4707C12.1447 47.7592 11.7163 47.9389 11.2638 47.9874C8.43495 48.3037 8.17704 44.2586 10.8128 44.0439Z" fill="white"/>
<path d="M10.8076 44.7134C11.542 44.6809 11.8291 45.0534 11.9809 45.7088L11.0256 45.7096L9.82031 45.7049C9.94272 45.13 10.2041 44.7889 10.8076 44.7134Z" fill="#333333"/>
<path d="M25.1027 44.0442C25.6279 43.9937 26.1916 44.2316 26.3218 44.7849C26.4249 45.2232 26.3863 45.736 26.3844 46.1884L26.3901 47.9197C26.1197 47.9158 25.8399 47.9078 25.5705 47.9168C25.5619 47.3597 25.6547 45.4318 25.4578 45.0618C25.3853 44.9254 25.2597 44.8401 25.1128 44.7999C24.7567 44.7024 24.4128 44.8197 24.1095 45.0022C23.9809 45.1056 23.9477 45.1373 23.8366 45.2595C23.7949 46.0126 23.8324 47.1405 23.8283 47.9212C23.5792 47.9078 23.2748 47.9135 23.0215 47.9117L23.0195 44.1393L23.8452 44.137C23.8306 44.2793 23.8306 44.4892 23.8267 44.6367C24.2515 44.2579 24.536 44.095 25.1027 44.0442Z" fill="white"/>
<path d="M40.6053 36.3071C40.8873 36.3146 41.1459 36.3099 41.4272 36.3032C41.405 36.6701 41.4187 37.1672 41.4179 37.5438L41.4163 40.0907L40.6081 40.0874C40.6071 39.9031 40.6112 39.7633 40.6241 39.5795C40.2794 39.9216 39.8522 40.1575 39.3587 40.1805C38.8671 40.2104 38.2494 40.0137 38.1261 39.4751C38.0248 39.0327 38.055 38.5109 38.055 38.0545L38.0563 36.3079C38.3314 36.3141 38.6064 36.3128 38.8815 36.3043C38.8692 36.9777 38.8838 37.6511 38.8751 38.3291C38.8671 38.9306 38.8617 39.4594 39.64 39.455C40.0535 39.4527 40.3348 39.2485 40.6081 38.961L40.6053 36.3071Z" fill="white"/>
<path d="M13.9662 36.2317C14.6097 36.1397 15.1822 36.3606 15.684 36.7466L15.326 37.3318C14.9396 36.9131 14.0726 36.662 13.6133 37.0897C13.5645 37.1351 13.4553 37.2648 13.4799 37.3259C13.6712 37.7415 14.4296 37.7863 14.8864 37.9315C15.7267 38.1988 16.1095 38.9514 15.5312 39.7029C15.2601 40.0554 14.7601 40.151 14.3039 40.1796C13.6537 40.1861 13.0815 40.0404 12.6016 39.5892C12.727 39.3946 12.8532 39.2079 12.9553 38.9999C13.4243 39.377 14.3922 39.8411 14.9083 39.2845C15.4827 38.665 13.9436 38.5193 13.6265 38.3907C13.4421 38.3159 13.2461 38.2664 13.0881 38.1287C12.5538 37.7513 12.6307 36.9405 13.109 36.5548C13.3616 36.3514 13.6509 36.2694 13.9662 36.2317Z" fill="white"/>
<path d="M14.6452 44.0446C15.2458 44.0098 15.7506 44.2011 16.2079 44.579C16.0854 44.7605 15.9656 44.9585 15.8486 45.1449C15.4792 44.7574 14.6116 44.4828 14.1547 44.8884C14.0591 44.9735 13.9986 45.0328 13.9909 45.1648C14.1712 45.6701 15.439 45.529 16.0224 46.0937C16.2096 46.2723 16.3162 46.5193 16.3179 46.7782C16.3332 47.7617 15.4014 48.0066 14.6119 48.0033C14.0081 47.9558 13.5831 47.8169 13.1191 47.4284C13.2272 47.2353 13.3748 47.013 13.4911 46.816C13.8497 47.1649 14.4056 47.3773 14.9059 47.3587C15.04 47.3538 15.3612 47.2314 15.4323 47.1174C15.8556 46.4695 14.6736 46.3566 14.2394 46.2396C13.3625 46.0032 12.9089 45.3705 13.4801 44.5228C13.704 44.1902 14.2357 44.0752 14.6452 44.0446Z" fill="white"/>
<path d="M45.9141 36.3093C46.7847 36.3405 48.0039 36.3247 48.8835 36.3057C48.8854 36.497 48.9111 36.7293 48.8431 36.9092C48.7296 37.209 47.2977 38.9823 46.9966 39.3912C47.5231 39.346 48.3548 39.3883 48.9297 39.3705C48.9189 39.5938 48.9122 39.8171 48.9101 40.0406L48.8815 40.0878C47.9286 40.1125 46.8754 40.0896 45.9148 40.0891C45.9135 39.8849 45.9141 39.6809 45.9159 39.4768C46.5243 38.6747 47.1655 37.8128 47.7933 37.0311C47.167 37.0368 46.5405 37.036 45.9141 37.0291V36.3093Z" fill="white"/>
<path d="M42.2012 36.3101C42.3437 36.3152 42.4966 36.3134 42.6397 36.3119C43.4815 36.3029 44.3302 36.3279 45.1714 36.3052C45.1722 36.4521 45.1856 36.8061 45.1271 36.9146C44.9616 37.2217 44.6604 37.5728 44.4439 37.8541C44.0515 38.3625 43.6617 38.8732 43.2752 39.3863C43.8945 39.3646 44.5694 39.3811 45.1964 39.3742L45.1915 40.0832C45.0861 40.1015 44.4361 40.0924 44.2864 40.0924L42.2022 40.0893C42.2007 39.8828 42.2014 39.6761 42.2045 39.4693C42.286 39.3512 42.3819 39.2288 42.4711 39.1153C43.012 38.428 43.5243 37.7103 44.0737 37.0304C43.4498 37.0371 42.8256 37.0369 42.2017 37.0296L42.2012 36.3101Z" fill="white"/>
<path d="M25.9256 34.7883C26.3056 34.7728 26.5627 34.9082 26.869 35.1003C26.7568 35.273 26.6581 35.4434 26.5544 35.6216C26.3165 35.4816 25.978 35.3568 25.7495 35.5973C25.5573 35.7997 25.569 36.0498 25.5701 36.3099C25.8333 36.3159 26.0793 36.3112 26.3417 36.305C26.3373 36.5492 26.3301 36.7938 26.3384 37.038C26.0989 37.0274 25.816 37.0297 25.5754 37.0272C25.5615 37.9009 25.5744 38.8074 25.5749 39.6837L25.5745 40.0931L24.7531 40.0889L24.7504 37.0295L24.1351 37.0388L24.1328 36.3063C24.3324 36.3153 24.5419 36.3122 24.7474 36.3208C24.7484 35.4615 24.9694 34.8804 25.9256 34.7883Z" fill="white"/>
<path d="M16.7087 35.2773C16.9839 35.283 17.2592 35.2817 17.5343 35.2734C17.5304 35.6205 17.5294 35.9677 17.5315 36.3147C17.7868 36.314 18.0422 36.3106 18.2976 36.3047C18.2935 36.5499 18.2877 36.793 18.2947 37.0382C18.0553 37.0276 17.7726 37.0302 17.5319 37.0273C17.5289 37.4674 17.4595 38.9707 17.5987 39.2734C17.6359 39.3541 17.7 39.4147 17.7849 39.4425C17.9557 39.4987 18.1247 39.4064 18.2699 39.3257C18.3132 39.4995 18.3799 39.6965 18.4342 39.8697C18.41 40.1337 17.9326 40.1708 17.7165 40.1778C16.5827 40.2139 16.7047 39.2458 16.7067 38.451L16.7067 37.0289C16.5138 37.0376 16.2786 37.0315 16.0826 37.0312L16.0801 36.306C16.2831 36.3181 16.5039 36.314 16.7089 36.314L16.7087 35.2773Z" fill="white"/>
<path d="M16.99 44.1396L17.8116 44.1353C17.7901 44.5684 17.8008 45.0794 17.8007 45.5166L17.8037 47.9168C17.5336 47.9119 17.2634 47.9125 16.9933 47.9179C16.9794 46.6662 16.9907 45.3929 16.99 44.1396Z" fill="white"/>
<path d="M17.3232 42.656C17.5953 42.6192 17.8474 42.8053 17.8926 43.076C17.9378 43.347 17.7597 43.6048 17.4904 43.6584C17.3086 43.6945 17.1215 43.629 17.0021 43.4869C16.8828 43.3452 16.8502 43.1495 16.917 42.9767C16.9838 42.8037 17.1394 42.6808 17.3232 42.656Z" fill="white"/>
</svg>
