<svg width="163" height="23" viewBox="0 0 163 23" fill="none" xmlns="http://www.w3.org/2000/svg">
<g clip-path="url(#clip0_4047_14653)">
<path d="M12.9075 2.29415C12.9075 0.504696 11.2067 -0.0356843 9.78042 0.0263265V0.185783C10.6309 0.247794 11.2864 0.593283 11.2864 1.1691C11.2864 1.56774 11.0029 2.06383 10.1525 2.06383C9.47923 2.06383 8.36303 1.66519 7.31771 1.3197C6.16608 0.921055 5.0676 0.54899 4.15515 0.54899C2.3657 0.54899 1.01032 1.87779 1.01032 3.52551C1.01032 4.85432 2.03792 5.31497 2.45428 5.48328L2.48086 5.42127C2.2151 5.2441 2.04678 5.04921 2.04678 4.48225C2.04678 4.00388 2.39227 3.36605 3.31358 3.36605C4.14629 3.36605 5.23591 3.73812 6.67988 4.14562C7.9201 4.49111 9.25776 4.81888 10.0019 4.91633V7.82198L8.60222 8.97361L10.0019 10.1784V14.1559C9.28434 14.5634 8.45162 14.6963 7.73407 14.6963C6.40526 14.6963 5.18276 14.3243 4.17287 13.2081L7.94667 11.3743V5.0935L3.34015 7.14872C3.81852 5.92622 4.71325 5.01377 5.69657 4.42024L5.66999 4.34937C2.93265 5.0935 0.443359 7.60051 0.443359 10.7011C0.443359 14.4128 3.41102 17.1679 6.83934 17.1679C10.5511 17.1679 12.7304 14.2622 12.6949 11.1883H12.6241C12.0837 12.3665 11.1801 13.4827 10.1613 14.0674V10.1872L11.623 9.00904L10.1613 7.83084V4.92519C11.5167 4.92519 12.9164 4.03046 12.9164 2.30301M5.13847 12.5348L4.06657 13.0752C3.41102 12.2247 2.97695 11.02 2.97695 9.4697C2.97695 8.83187 3.04782 7.96372 3.26042 7.35247L5.15619 6.50203L5.12961 12.5259L5.13847 12.5348ZM22.3863 7.4322L21.6688 7.99915L19.4807 6.05024L16.9471 8.00801V0.442685L13.5011 2.82567C13.8997 2.95855 14.3781 3.17116 14.3781 4.09247V14.5546L13.1999 15.4493L13.3062 15.5556L13.8997 15.1481L15.9549 17.0262L18.71 15.1924L18.6214 15.0595L17.9216 15.5202L16.9648 14.5634V8.25605L17.6204 7.77769L19.1263 9.08877V14.5723C19.1263 18.0449 18.3556 18.7625 16.7965 19.3294V19.418C19.3921 19.5243 21.7308 18.6473 21.7308 14.2002V8.22062L22.5104 7.58279L22.4041 7.44991L22.3863 7.4322ZM27.0106 16.9996L31.0059 13.7927L30.8996 13.6421L28.8089 15.2987L26.4082 13.403V12.2247L30.5541 9.30138L28.4634 6.05024L23.8569 8.58383V14.6077L22.9622 15.3076L23.0685 15.4405L23.9189 14.7672L27.0194 17.0173H27.0106V16.9996ZM26.3993 11.9767V7.41448L28.4103 10.5593L26.3993 11.9767ZM47.5273 1.44372C47.5273 1.16024 47.4565 0.921055 47.3502 0.593283H47.2881C47.0047 1.36399 46.6946 1.77149 45.7999 1.77149C45.0203 1.77149 44.4002 1.29312 44.0724 0.938772C44.0724 0.965348 41.4503 3.96845 41.4503 3.96845L41.5831 4.07475L42.3273 3.22432C42.8942 3.65839 43.3992 4.16334 44.6571 4.18105V11.835L39.2887 2.53334C38.8724 1.8335 38.1548 0.788174 36.9323 0.788174C35.4884 0.788174 34.3987 2.02839 34.5759 4.1279H34.6645C34.7708 3.60524 35.0809 2.9497 35.7098 2.9497C36.2148 2.9497 36.6223 3.42807 36.8615 3.86214V6.85638C35.2049 6.85638 34.2659 7.62709 34.2659 8.92932C34.2659 9.4697 34.6645 10.6479 35.7896 10.8517V10.7896C35.639 10.639 35.4884 10.5062 35.4884 10.1961C35.4884 9.69116 35.8604 9.41654 36.5337 9.41654C36.64 9.41654 36.7994 9.44312 36.8615 9.46084V13.3409C34.9125 13.3675 33.4154 14.4306 33.4154 16.2732C33.4154 18.1158 34.9214 18.8245 36.4894 18.7359V18.6739C35.5061 18.5676 35.0011 18.0626 35.0011 17.3451C35.0011 16.5655 35.5681 16.1403 36.2856 16.1403C37.0032 16.1403 37.5524 16.6009 38.0131 17.1236L40.6353 14.1737L40.529 14.0674L39.8557 14.8381C38.8458 13.9433 38.1991 13.527 37.0386 13.3498V4.15448L44.4445 17.0616H44.8431V4.19877C46.2605 4.11019 47.5273 3.04714 47.5273 1.44372ZM50.0166 16.9819L54.0119 13.775L53.9056 13.6244L51.8149 15.281L49.4142 13.3852V12.207L53.5601 9.28366L51.4694 6.03252L46.8629 8.56611V14.59L45.9682 15.2899L46.0745 15.4227L46.9249 14.7495L50.0255 16.9996L50.0166 16.9819ZM49.4054 11.959V7.39676L51.4163 10.5416L49.4054 11.959ZM68.2035 7.06899L67.5923 7.52964L65.8471 6.04138L63.8185 7.87513L64.6512 8.6547V15.4936L62.5783 14.0762V8.53067L63.2958 8.02573L61.1609 6.04138L59.1765 7.87513L60.0092 8.6547V15.2633L59.8763 15.3519L57.9274 13.9345V8.5041C57.9274 7.2373 57.2896 6.86524 56.4835 6.36915C55.8102 5.95279 55.4559 5.56301 55.4559 4.92519C55.4559 4.22535 56.0671 3.94187 56.262 3.83557C55.5622 3.80899 53.6221 4.50883 53.5778 6.28057C53.5512 7.19301 53.9942 7.59165 54.4548 8.02573C54.9155 8.4598 55.3496 8.87616 55.3496 9.64687V14.9709L54.4105 15.7151L54.5168 15.8214L55.4116 15.1215L57.7414 17.0173L59.9649 15.467L62.4099 17.0173L67.2113 14.1825V8.02573L68.2832 7.19301L68.1947 7.06013L68.2035 7.06899ZM84.2821 1.89551L83.3696 2.72823L81.3144 0.938772L78.5416 3.1623V1.07165H78.3733V16.0694C78.0721 16.0251 77.4343 15.848 76.7345 15.7417V3.18888C76.7345 2.27644 76.0789 1.00078 74.44 1.00078C72.8012 1.00078 71.7736 2.38274 71.7736 3.57866H71.8444C71.933 3.03828 72.3051 2.55105 72.8455 2.55105C73.3859 2.55105 73.8908 2.89654 73.8908 4.1279V7.70682C72.3405 7.76883 71.4015 8.73442 71.4015 9.77975C71.4015 10.3733 71.7736 11.4806 72.9518 11.5249V11.4363C72.5531 11.268 72.4734 11.0643 72.4734 10.8428C72.4734 10.3201 72.9784 10.143 73.6782 10.143H73.8465V15.91C72.5177 16.3706 71.8976 17.2653 71.8976 18.3727C71.8976 19.8964 73.1201 21.0746 74.9096 21.0746C76.1763 21.0746 77.0711 20.8531 78.2316 20.5962C79.1706 20.4013 80.1893 20.1799 80.7386 20.1799C81.4384 20.1799 81.7485 20.4899 81.7485 20.986C81.7485 21.6238 81.5093 21.9427 81.1372 22.0579V22.1465C82.6432 21.863 83.5202 20.9949 83.5202 19.6395C83.5202 18.2841 82.1914 17.3894 80.7031 17.3894C79.9324 17.3894 78.5416 17.6286 77.4077 17.8943C76.1409 18.1778 75.0513 18.3107 74.6526 18.3107C74.0148 18.3107 73.2353 18.0272 73.2353 17.1768C73.2353 16.4061 73.8731 15.7948 75.4411 15.7948C76.2915 15.7948 77.1242 15.9277 78.1696 16.1669C79.2858 16.4061 80.0476 16.7338 81.0043 16.7338C82.3331 16.7338 83.405 16.2555 83.405 14.3065V2.93198L84.3884 2.03725L84.2821 1.90437V1.89551ZM80.526 7.90171C80.2868 8.16747 80.0033 8.38008 79.5427 8.38008C79.0377 8.38008 78.7719 8.11432 78.5328 7.90171V3.39263L79.1883 2.86997L80.5171 4.00388V7.91057L80.526 7.90171ZM80.526 10.0367C80.3045 9.81519 80.021 9.62029 79.5427 9.62029C79.0643 9.62029 78.7365 9.85948 78.5328 10.0367V8.11432C78.7277 8.28263 79.0554 8.54839 79.5427 8.54839C80.0299 8.54839 80.3134 8.32692 80.526 8.11432V10.0367ZM80.526 14.5546C80.526 15.2987 80.1539 16.1314 79.1972 16.1314C79.0466 16.1314 78.6922 16.1049 78.5416 16.0871V10.2581C78.7631 10.0632 79.0466 9.79747 79.5515 9.79747C80.0122 9.79747 80.2691 10.0189 80.5348 10.2581V14.5634L80.526 14.5546ZM88.3039 16.9819L92.7598 14.2091V8.14089L89.8808 6.02366L85.4248 8.57497V14.5812L84.5478 15.281L84.6364 15.4139L85.354 14.8203L88.3039 16.9819ZM87.9761 13.837V7.37018L90.1997 9.02676V15.4936L87.9761 13.837ZM101.273 6.17426C100.928 6.41345 100.617 6.54633 100.29 6.54633C99.9442 6.54633 99.5102 6.32486 99.2798 6.04138C99.2798 6.06796 97.6232 7.83084 97.6232 7.83084L95.9667 6.04138L93.2648 7.91942L93.3534 8.07002L94.0709 7.59165L95.0542 8.66355V14.5369L93.876 15.4316L93.9823 15.5379L94.5759 15.1304L96.7817 17.0084L99.5722 15.157L99.4836 15.0241L98.766 15.4582L97.6321 14.4306V7.98143C98.0928 8.48638 98.6154 8.92046 99.2444 8.92046C100.378 8.92046 101.14 7.56508 101.273 6.1654M111.797 14.8558L110.964 15.3784L106.358 8.5041L106.597 8.17633C107.102 8.47752 107.554 8.89388 108.519 8.89388C109.485 8.89388 110.708 7.88399 110.814 6.03252C110.575 6.36029 110.096 6.75008 109.308 6.75008C108.741 6.75008 108.174 6.37801 107.828 6.03252L104.684 10.6568L108.856 17.0084L111.886 14.9975L111.797 14.8469V14.8558ZM106.207 15.0241L105.507 15.4847L104.551 14.528V0.442685L101.105 2.82567C101.503 2.95855 101.982 3.17116 101.982 4.09247V14.5546L100.804 15.4493L100.91 15.5556L101.503 15.1481L103.559 17.0262L106.314 15.1924L106.225 15.0595L106.207 15.0241ZM126.485 2.27644C126.485 0.486979 124.784 -0.0534017 123.358 0.00860914V0.185783C124.208 0.247794 124.864 0.593283 124.864 1.1691C124.864 1.56774 124.58 2.06383 123.73 2.06383C123.057 2.06383 121.94 1.66519 120.895 1.3197C119.743 0.921055 118.645 0.54899 117.732 0.54899C115.943 0.54899 114.588 1.87779 114.588 3.51665C114.588 4.84546 115.615 5.30611 116.032 5.47442L116.058 5.41241C115.792 5.23524 115.624 5.04035 115.624 4.47339C115.624 3.99502 115.97 3.3572 116.891 3.3572C117.724 3.3572 118.813 3.72926 120.257 4.13676C121.497 4.48225 122.835 4.81002 123.579 4.90747V7.81312L122.18 8.96475L123.579 10.1695V14.1471C122.862 14.5546 122.029 14.6875 121.311 14.6875C119.983 14.6875 118.751 14.3154 117.75 13.1992L121.524 11.3655V5.0935L116.917 7.14872C117.396 5.92622 118.291 5.01377 119.274 4.42024L119.247 4.34937C116.519 5.0935 114.03 7.60051 114.03 10.7011C114.03 14.4128 116.997 17.1679 120.426 17.1679C124.137 17.1679 126.317 14.2622 126.281 11.1883H126.219C125.679 12.3665 124.775 13.4827 123.756 14.0674V10.1872L125.218 9.00904L123.756 7.83084V4.92519C125.112 4.92519 126.511 4.03046 126.511 2.30301M118.734 12.5437L117.662 13.084C117.006 12.2336 116.572 11.0288 116.572 9.47855C116.572 8.84073 116.634 7.97258 116.855 7.36133L118.751 6.51089L118.725 12.5348L118.734 12.5437ZM129.302 1.63861L127.38 3.25089L129.018 5.10236L130.941 3.49008L129.302 1.63861ZM132.225 15.0595L131.525 15.5202L130.569 14.5634V8.21176L131.375 7.57393L131.269 7.44105L130.595 7.96372L129.001 6.06796L126.379 7.90171L126.467 8.0523L127.123 7.61823L128 8.70785V14.5634L126.822 15.4582L126.928 15.5645L127.521 15.157L129.577 17.035L132.332 15.2013L132.243 15.0684L132.225 15.0595ZM146.957 14.9709L146.302 15.405L145.274 14.4217V8.19404L146.107 7.55622L146.001 7.42334L145.256 7.99029L143.068 6.04138L140.606 7.96372L138.444 6.04138L136.017 7.93714L134.378 6.04138L131.756 7.87513L131.844 8.02573L132.5 7.59165L133.439 8.66355V14.5192L132.721 15.2367L134.812 17.0084L136.841 15.1747L136.008 14.3951V8.15861L136.548 7.75997L138.054 9.07105V14.528L137.355 15.2456L139.472 17.0173L141.456 15.1836L140.623 14.404V8.16747L141.146 7.75111L142.67 9.07991V14.4483L142.058 15.0861L144.193 17.035L147.01 15.1127L146.922 14.9798H146.94L146.957 14.9709ZM154.576 13.6421L152.485 15.2987L150.084 13.403V12.2247L154.23 9.30138L152.14 6.05024L147.533 8.58383V14.7229L150.696 17.0173L154.691 13.8105L154.585 13.6599L154.576 13.6421ZM150.076 11.9767V7.41448L152.087 10.5593L150.076 11.9767ZM162.584 11.1174L160.812 9.76203C161.991 8.73442 162.407 7.4322 162.407 6.49317C162.407 6.36029 162.38 6.12111 162.363 5.89964H162.292C162.123 6.37801 161.654 6.79437 160.936 6.79437C160.219 6.79437 159.82 6.39573 159.386 5.91736L155.329 8.16747V11.4629L156.879 12.6854C155.329 14.0585 155.028 14.9089 155.028 15.6974C155.028 16.4858 155.488 17.1768 156.277 17.4868L156.339 17.3805C156.144 17.2122 155.967 17.097 155.967 16.6807C155.967 16.3795 156.277 15.9011 156.977 15.9011C157.871 15.9011 158.42 16.5124 158.704 16.8401C158.704 16.8136 162.584 14.4571 162.584 14.4571V11.1174ZM161.672 8.41551C161.06 9.50513 159.714 10.577 158.917 11.1883L157.933 10.3556V7.14872C158.332 8.02573 159.138 8.761 160.183 8.761C160.795 8.761 161.193 8.6547 161.663 8.41551M159.98 15.6176C159.519 14.59 158.536 13.8459 157.446 13.8459C157.18 13.8459 156.374 13.8193 155.674 14.2534C156.091 13.5536 157.331 12.2956 158.908 11.3477L159.98 12.2425V15.6088V15.6176Z" fill="black"/>
</g>
<defs>
<clipPath id="clip0_4047_14653">
<rect width="163" height="22.1814" fill="white"/>
</clipPath>
</defs>
</svg>
