<svg width="95" height="20" viewBox="0 0 95 20" fill="none" xmlns="http://www.w3.org/2000/svg">
<g clip-path="url(#clip0_4047_14611)">
<path fill-rule="evenodd" clip-rule="evenodd" d="M0 19.8174V0.162598H14.6341V3.40734H4.05583V8.64877H12.2331V11.8307H4.05583V19.8174H0Z" fill="#222222"/>
<path fill-rule="evenodd" clip-rule="evenodd" d="M24.6921 9.49146C27.645 9.49146 29.0078 8.5554 29.0078 6.43419C29.0078 4.46846 27.645 3.31423 24.6921 3.31423H19.9872V9.49146H24.6921ZM29.1701 19.8178C28.7484 19.2874 28.4888 17.946 28.3263 15.7621C28.164 13.547 27.1258 12.5485 24.7897 12.5485H19.9872V19.8178H15.9961V0.163086H25.2438C30.4679 0.163086 33.0314 2.50321 33.0314 6.15309C33.0314 9.11703 31.0196 10.8329 28.521 11.1449C30.8573 11.5818 32.0581 12.892 32.2852 15.2004C32.5446 18.102 32.6422 19.1002 33.3235 19.8178H29.1701Z" fill="#222222"/>
<path fill-rule="evenodd" clip-rule="evenodd" d="M41.6993 11.9562H47.9294L44.8467 4.59326H44.7171L41.6993 11.9562ZM47.183 0.163086L55.5223 19.8178H51.2069L49.1626 14.9511H40.4664L38.487 19.8178H34.3984L42.6729 0.163086H47.183Z" fill="#222222"/>
<path fill-rule="evenodd" clip-rule="evenodd" d="M65.5101 19.8374L60.5129 4.36318H60.3831V19.8374H56.6191V0.182617H63.0118L67.4894 14.4714H67.5868L71.8372 0.182617H78.1V19.8374H74.0114V4.36318H73.8815L68.9818 19.8374H65.5101Z" fill="#222222"/>
<path fill-rule="evenodd" clip-rule="evenodd" d="M79.168 16.5929H90.4597V11.4138H81.8286V8.20055H90.4597V3.42736H79.4602V0.182617H94.4509V19.8374H79.168V16.5929Z" fill="#222222"/>
</g>
<defs>
<clipPath id="clip0_4047_14611">
<rect width="95" height="20" fill="white"/>
</clipPath>
</defs>
</svg>
